<?xml version="1.0" encoding="UTF-8"?>
<svg viewBox="0 0 124 109" xmlns="http://www.w3.org/2000/svg">
<path d="m84.76 51.55c-1.52-1.58-1.78-2.71-3.85-3.08-1-0.18-3.56 0.38-4.6 0.49-2.94 0.32-5.55 0.51-8.44 1.07 0-0.14 0-0.28 0.01-0.43 0.01-1.25-0.03-2.47-0.12-3.65 2.88-0.32 5.41-0.91 8.28-1.48 1.01-0.2 3.63-0.43 4.54-0.9 1.84-0.96 1.76-2.13 2.73-4.08 2.85-5.71 9.56-10.26 11.76-16.29-0.17-0.03-0.94-0.12-1.04-0.13-1.54 2.19-3.18 3.96-4.78 6.03-2.74 3.54-6.02 10.28-9.35 12.63-2.85 2.03-8.92 3.45-12.38 2.15-0.82-5.46-2.94-9.35-5.49-9.38-2.5-0.04-4.72 3.65-5.75 8.97-3.56 0.93-9.19-0.65-11.87-2.68-3.25-2.48-6.3-9.31-8.93-12.95-1.53-2.12-3.12-3.93-4.58-6.17-0.1 0-0.88 0.08-1.05 0.1 2.0 6.09 8.56 10.87 11.21 16.66 0.92 1.98 0.8 3.13 2.61 4.16 0.89 0.51 3.49 0.82 4.51 1.06 2.69 0.61 5.1 1.25 7.79 1.68-0.17 1.29-0.27 2.67-0.3 4.08v0.02c-2.73-0.6-5.25-0.88-8.04-1.27-1.03-0.14-3.57-0.79-4.58-0.65-2.06 0.31-2.37 1.43-3.93 2.96-4.57 4.45-12.4 6.53-16.46 11.51 0.16 0.07 0.85 0.43 0.95 0.47 2.18-1.56 4.31-2.69 6-4.11 3.75-2.44 9.06-7.73 12.98-8.87 3.44-1 9.9-0.28 12.62 2.26 0.17 3.71 0.9 6.98 1.99 9.29-2.96 0.37-5.64 0.94-8.64 1.5-1.17 0.21-4.13 0.47-5.16 0.98-2.1 1.04-2.02 2.29-3.13 4.42-3.23 6.19-10.87 11.12-13.37 17.67 0.2 0.02 1.07 0.14 1.2 0.14 1.75-2.38 3.61-4.29 5.42-6.54 3.12-3.83 6.85-11.14 10.63-13.71 3.38-2.29 10.71-3.87 14.56-2.12 0.14 0.14 0.28 0.28 0.44 0.41-4.12 1.56-7.25 7.53-7.36 14.71-0.1 5.95 1.88 11.13 4.87 13.71 0 0 3.18 1.05 3.83 3.9 0 0 2.37-3.63 3.98-3.27l0.57-0.4c3.12-2.46 5.32-7.62 5.41-13.62 0.12-7.46-3.05-13.72-7.34-15.13 0.21-0.18 0.42-0.4 0.62-0.64l-0.01 0.05c3.88-1.69 11.28 0.14 14.61 2.56 3.7 2.69 7.18 10.11 10.17 14.05 1.74 2.3 3.55 4.28 5.22 6.72 0.12-0.01 1-0.1 1.2-0.12-2.29-6.62-9.76-11.8-12.79-18.09-1.04-2.15-0.91-3.41-2.98-4.53-1-0.54-3.98-0.89-5.13-1.15-3.06-0.67-5.79-1.36-8.84-1.82 0.96-2.06 1.68-4.85 1.99-7.99 0.07-0.1 0.15-0.2 0.24-0.29l0.01 0.01c2.7-2.6 9.39-3.14 12.88-2.01 3.88 1.27 9.01 6.73 12.68 9.29 2.15 2 4.24 2.7 6.36 4.33 0.1-0.04 0.8-0.36 0.96-0.43-3.88-5.12-11.64-7.45-16.05-12.05m-18.59 18.39s-2.62 13.18-0.2 16.52c0.17 0.48 0.67 0.85 1.28 0.86 0.2 0.01 0.4-0.04 0.57-0.1l0.01-0.01c-0.28 0.69-1.03 1.93-2.98 3.28 0 0-1.71-0.19-1.97 0.86 0 0-0.96-0.74-3.17-0.21 0 0-0.64-0.91-1.7-0.92 0 0-2.42-1.58-2.3-3.04 0 0 0.05 0.01 0.14 0.01 0.01-0.01 0.01-0.01 0.01-0.01 0.67 0.02 1.25-0.41 1.35-0.99 1.02-1.58 1.89-5.71 0.15-16.39 0.01 0 3.9-4.42 8.79 0.14m-2.79-7.68s0.82-10.55-0.69-12.04c0 0-0.65-0.67-0.78-2.05 0 0-0.2 1.86-1.01 2.19 0 0-2.0 2.4-1.01 11.69 0 0-2.9-6.88-0.95-11.07 0 0 3.14-12.72 1.52-13.64l-0.15-0.57s1.58-2.25 3.5-0.03l-0.17 0.56s-1.69-1.17 1.0 13.52c-0.01 0 1.96 4.35-1.25 11.45" fill="#258dbf"/>
<path d="m47.87 26.82c2.02 0.28 3.79 1.2 5.58 1.93-0.15 0.69-0.23 1.09-0.23 1.09 0.59 2.52 2.94 2.73 2.94 2.73 3.29 1.3 13.66 0.54 13.66 0.54 1.57-0.43 2.24-2.63 2.24-2.63 0.32-0.45 0.38-1.12 0.26-1.95 1.65-0.64 3.29-1.35 5.12-1.54 2.09-0.23 6.58 1.91 8.0-0.51-1.64-0.49-6.35-0.58-8.43-0.34-1.32 0.14-3.21 1.05-4.83 1.69-0.01-0.03-0.01-0.06-0.03-0.09 0.6-8.26-5.11-10.7-5.11-10.7-0.2-8.05-3.85-8.2-3.85-8.2l0.23 0.41c2.9 2.17 0.75 4 0.75 4l-0.02 0.01-0.13-0.19s-2.06 0.1-2.88 0.1l-0.26-0.08c-0.06 0.04-0.14 0.1-0.2 0.15-0.06-0.04-0.09-0.07-0.09-0.07-2.08-1.9 0.88-4.05 0.88-4.05l0.17-0.33c-3.65 0.62-4.0 7.34-4.04 8.28-0.03 0.06-0.06 0.12-0.1 0.17-6.54 3.96-4.15 10.54-4.15 10.54s0.01 0.09 0.04 0.18c-1.67-0.71-3.66-1.78-5.07-1.98-2.08-0.3-6.78-0.36-8.44 0.07 1.34 2.47 5.89 0.48 7.97 0.77m18.3-9.32l1.09 0.26c5.68 3.02 3.73 10.19 3.73 10.19-2.85 1.9-5.7-1.43-5.7-1.43-0.59-1.23 0.88-9.02 0.88-9.02m-8.41 0.23l1.1-0.23s1.22 7.83 0.58 9.04c0 0-2.94 3.23-5.74 1.25 0-0.01-1.73-7.22 4.05-10.06" fill="#258dbf"/>
<path d="m59.91 70c-1.64 10.88 0.9 14.16 0.9 14.16 0.53 0.54 0.71 1.93 0.76 2.44 0-0.76 0.7-2.25 0.7-2.25 2.82-3.54 1.38-14.45 1.38-14.45-2.42-1.34-3.74 0.1-3.74 0.1" fill="#258dbf"/>
</svg>

