<svg xmlns="http://www.w3.org/2000/svg" x="486.4" y="394.4" width="270.3" height="394.4" viewBox="0 0 270.3 394.4" overflow="visible"><title pointer-events="inherit">Layer 1</title><g fill-opacity="1"><path d="M144.3 195.8L144.3 394.4C182.7 394.4 213.8 350 213.8 295.1 213.8 240.3 182.7 195.8 144.3 195.8z" fill="#7f00ff"/><path d="M133.7 195.8L133.7 394.4C95.3 394.4 64.2 350 64.2 295.1 64.2 240.3 95.3 195.8 133.7 195.8z" fill="#7f00ff"/><rect x="99" y="192.4" width="80.1" height="122.3" fill="#7f00ff"/><path d="M174.6 174.9C174.6 181.1 157.7 186.2 136.8 186.2 115.9 186.2 99 181.1 99 174.9 99 168.6 115.9 163.5 136.8 163.5 157.7 163.5 174.6 168.6 174.6 174.9z" fill="#7f00ff"/><rect x="147.1" y="195.5" transform="matrix(0.8199,-0.5725,0.5725,0.8199,-86.5376,137.4061) " width="56" height="21.6" fill="#7f00ff"/><path d="M181.9 189.1L197.5 176.5 197.5 169.7 201.8 165.6 202.9 146.6 198.6 138.7 204.4 137.6 204.4 123.9 209.5 115.4C209.5 115.4 220.8 146.7 218.7 162.7S219 165.4 219 165.4L223.8 164.8 219.1 191.5 206.3 186.6 202.9 188.7 203.9 198.5 183 190.2 181.9 189.1z" fill="#7f00ff"/><rect x="65.1" y="201.1" transform="matrix(-0.6569,-0.754,0.754,-0.6569,-5.4919,421.2216) " width="56" height="21.6" fill="#7f00ff"/><path d="M90.6 193.6L78.5 177.6 80.2 171 77 166 80.6 147.3 86.7 140.6 81.3 138.2 84.6 124.9 81.7 115.4C81.7 115.4 63.2 143 61.4 159 59.6 175.1 60.4 161.6 60.4 161.6L55.9 159.8 54 186.9 67.6 185.2 70.4 188.1 67 197.4 89.3 194.4 90.6 193.6z" fill="#7f00ff"/><path d="M200.3 278.2C200.3 278.2 200.4 278.2 200.8 278.3 205.1 279.1 236.5 286.4 241.9 312.7 248.2 343.3 249.8 350 263.6 353.8 277.5 357.6 265.4 364.6 265.4 364.6S245.2 369.1 236.2 357.1C227.3 345.1 227.3 345.9 227.3 345.9L229.6 326.3 220.7 321.8 220.6 309.5 203.3 309.6 201.8 280.7 201 279.2" fill="#7f00ff"/><path d="M66.7 288.4C66.7 288.4 66.5 288.5 66.2 288.7 62.5 291.1 36.3 309.7 41.2 336.1 46.9 366.8 48 373.6 36.6 382.4 25.2 391.1 39.1 393 39.1 393S59.5 389.6 63.2 375.1C67 360.6 67.3 361.3 67.3 361.3L57.7 344 64.3 336.5 59.8 325.1 75.8 318.7 66.2 291.3 66.3 289.7" fill="#7f00ff"/><path d="M186.3 226.4L223.3 226.4 227.3 222 239.8 229.9 238 236.7 247.4 236.7 263.9 295.1 270.3 296.8 270.3 313.5 262.5 308.2 254.9 309.6 255.5 296.3C255.5 296.3 242.2 282.3 239.7 274.7 237.2 267.1 235.3 248.7 235.3 248.7L227.6 251.2 221.9 240.1 217.4 251.5 191.3 253.5 186.3 227" fill="#7f00ff"/><path d="M107.9 236.2L73.1 224.1 70.7 218.6 56.2 222 55.7 229 46.8 225.9 12.1 275.7 5.5 275.1 0 290.9 9.1 288.5 15.8 292.3 19.6 279.5C19.6 279.5 36.8 270.7 41.6 264.4 46.5 258 54.4 241.2 54.4 241.2L60.8 246.1 69.9 237.5 70.4 249.7 94.3 260.2 107.7 236.8" fill="#7f00ff"/><path d="M167 157.9L219.3 76.3C219.3 76.3 184.2 43.7 183.8 14.1 183.3-15.5 180.6 10.7 180.6 10.7S154.6 44.6 147.1 41.2C139.5 37.7 161.1 53.3 161.1 53.3S152.1 69.4 151.7 70.1C151.2 70.8 187.2 73.5 187.2 73.5L160.6 87.7 175.7 90 164.7 110.7 160.4 105.2 153 112.5 150.5 97.8 142.5 108.4 139 99.7 133.3 103.6 128.3 96 118.2 102.2 104 82.5 119.1 88.9 111.8 74.2 126.9 75.6 119.3 59.3 145.5 51.7 121.2 29.9 119.6 15.5 108.8 30.6 71.2 58.6 60.4 56.5 60.4 71 72.3 71.4C72.3 71.4 93.4 124 107.4 131.1 121.4 138.2 104.9 132.9 104.9 132.9L97.1 132.9 101.2 141.4 102.6 146.4 100.5 150.6 110.1 153.8 167 157.9z" fill="#7f00ff" fill-opacity="1" stroke="none" stroke-opacity="1"/><path d="M98.3 194.3C98.3 194.3 98.7 184.9 98.3 180.2 97.8 175.5 97.2 163.3 97.2 163.3L98.5 148.4 107.8 146.9 106.2 159.4 107.8 166 106.2 179.4C106.2 179.4 108.5 191.9 107.8 191.9 107.1 191.9 102.5 199.4 102.5 199.4L100.4 197.3 98.3 194.3z" fill="#7f00ff"/><path d="M160.6 154.5C161.2 166.2 162.7 168 162.7 168L166.6 172.1 167.8 181.4 164.2 198.5 174.6 197.4 174.6 178.6C174.6 178.6 177.4 172.6 174.6 169.4S168.2 160.2 168.2 160.2L166.3 149.9 160.6 154.5z" fill="#7f00ff"/></g></svg>