<?xml version="1.0" encoding="UTF-8"?>
<svg viewBox="0 0 124 109" xmlns="http://www.w3.org/2000/svg">
<path d="m86.78 80.39s-2.06-8.06-7.66-8.78c-0.26-2.68-0.81-5.37-1.97-6.54 0 0-0.03-0.04-0.07-0.14l2.64-0.23 1.03-2.96 1.82 2.71 2.48-0.84-0.07 6.68c0.01-0.08 0.09-0.43 1.38 1.18l1.43 1.8 2.43 2.33-0.1 2.57 0.9-0.71 2.04 1.43-0.59-3.14s-1.55 0.45-1.31-0.53c0.24-0.98-4.37-13.99-4.37-13.99l-2.91-0.39 1.19-1.06-3.07-2.29-0.84 1.34-6.33 0.53-2.25-3.96 3.27-2.83 0.04-3.19 3.27 0.99 0.47-1.96 0.61-4.2-1.28-0.2-0.01-3.83-2.3-8.41-0.71 2.92-0.08 2.88-1.26 0.11 0.8 1.84s0.38 4.43-1.1 5.83l-0.18 1.62-4.76 3.68-0.27-0.4 0.28-2.88 0.56-1.01-0.74-1.21-1.65-0-1.1-1.82 2.8-0.86-1.37-1.16 1.42-2.04 9.12-16.72s-7.74-4.76-9.55-14.82c0 0-5.63 8.77-8.65 7.12l3.17 3.56-1.24 4.25 4.97-1.7 1.05 1.2-3.45 4.42 1.58-0.14 1.53-0.76 1.32 0.52-3.63 6.06-0.51-2.19-2.08 1.77-0.21-2.53-0.73-1.22-0.91 0.71 0.19 2.22-1.14-2.13-2.46 1.17-0.47-1.88-1.85 0.79-0.91 0.71-3.54-4.17 4.65 2.16-2.88-3.9 1.82-1.11 2.33 1.08-2.25-3.96 3.45-0.61 3.38-1.56-7.13-5.14-0.58-3.14-1.6 3.65-8.94 7.45s-3.29-1.31-2.88-0.07l0.42 1.24-0.18 1.61 2.17-0.82 4.95 9.47 1.88 3.35 2.75 2.31-2.52 0.22 0.77 1.52 0.8 1.84-0.45 2.28 0.08 0.94 0.47 1.87-1.93-0.15 0.48 1.88 1.51 3.29c-0.57 0.18-1.06 0.4-1.46 0.65l-0.07 0.17-2.39-2.31-1.19 1.06-1.69-1.13 1.04-6.47-1.29-0.2 0.1-2.56 2.91 0.4-0.65-3.78-0.32-3.81-1.72 2.38s-4.11 8.01-3.08 8.88c1.03 0.87-2.4 5.62-1.04 6.47 1.34 0.83 3.56 0.65 3.56 0.65l-0.83 1.35 1.16 2.46 2.54 3.61 0.42 2.0-1.04 0.98s-0.02 0.04-0.07 0.12l-2.51-3.15s-0.76 2.29-1.68 2.69c-0.93 0.4-3.98 1.93-3.98 1.93l-2.4 5.63-2.13 4.96-2.24 3.69 1.08 1.5 1.81-1.11 0.82-1.66 1.24-0.42 0.07-2.88 1.7-2.69 1.43 1.79 2.58-7.24 2.33 1.2c-0.95 2.66-1.86 6.29-1.72 10.13-1.28 1.42-2.92 2.91-2.92 2.91l-0.66 3.56-1.46-2.11-0.18 1.61-2.22 0.19 0.78 9.19 1.7 1.13 3.66 5.75-0.7 2.92 0.94-0.08 0.79-1.98s1.29-3.62-1.7-8.79l0.4-6.73 2.32-1.31 0.02 0.12s3.49 15.19 15.2 16.91l1.03 0.65 0.85-1.0c0.03 0 0.07-0.01 0.1-0.01 0.07-0.05 0.14-0.1 0.21-0.14 0.18-0.56 1.27-4.84 0.69-20.89l0.1-0.01c0.6 6.96 1.39 14.38 2.34 20.43 0.04-0.01 0.07-0.02 0.1-0.04l0.45 0.75s0.46-0.05 1.21-0.26c0.38 0.01 0.81-0.1 1.27-0.42 3.94-1.48 11.29-6.06 12.28-19.74 0 0 0-0.01-0.01-0.04l2.57-0.04 0.63 3.77 1.35 0.84 0.71 4.73 0.66 0.26 2.44 2.35 3.27 0.99c0.01 0-5.31-10.08-4.13-11.13zm-33.83-38.26c0.49 0.34 12.31 1.34 12.31 1.34l0.97 1.85-12.99-0.53c-1.15-1.35-0.29-2.67-0.29-2.67zm14.28 9.71c-0.98-1.01-14.49-0.46-14.49-0.46l0.28-2.0c1.73 1.27 14.26-0.29 14.26-0.29l-0.04 2.75z" fill="#7352a4"/>
</svg>

