<?xml version="1.0" encoding="UTF-8"?>
<svg viewBox="0 0 124 109" xmlns="http://www.w3.org/2000/svg">
<path d="m87.16 45.1c-0.41-0.77-2.26 0.17-2.44-1.4-0.17-1.56-0.99-3.08-0.99-3.08l-3.8-7.61 0.47-1.61-1.34-0.42-2 1.16s-4.79 1.1-6.01 2.06l-0.83 0.41c-0.17-1.08-0.54-2.1-1.09-3.02 0.12-0.9 0.1-1.81-0.14-2.33 1.21 0.81 6 1.21 6 1.21l1.74 0.92 1.23-0.62-0.82-1.52 2.01-8.04s0.47-1.61 0.28-3.18c-0.17-1.56 1.85-0.93 2.08-1.74 0.24-0.8-2.56-2.44-2.11-1.42 0.45 1.01 0.17 1.56-1.35 2.47-1.52 0.91-1.02 2.45-0.61 3.21 0.41 0.76-0.91 9.28-1.67 8.28-0.62-0.81-6.16-2.5-8.14-3.08-0.1-0.21-0.23-0.39-0.36-0.52 0.04-0.33 0.07-0.64 0.06-0.96-0.01-0.96-0.18-1.88-0.52-2.71-0.44-1.5-1.09-2.88-1.58-2.57 0 0-0.02 0.04-0.04 0.11-0.54-0.52-1.15-0.94-1.81-1.26 0.25-2.15 1.79-8.62 11.43-1.01 0 0 1.61 0.57 0.58-0.87 0 0-6.42-5.94-10.48-3.31 0 0-2.27 1.44-2.88 4.72-0.44-0.1-0.9-0.15-1.37-0.14-0.65 0-1.27 0.11-1.85 0.29-0.11-1.11-1.35-10.71-13.68-1.75l-0.14 0.15s0.3 1.46 1.46 0.57c0 0 9.39-8.04 11.27 1.49-0.65 0.34-1.24 0.79-1.75 1.33-0.07-0.12-0.12-0.2-0.12-0.2-0.43 0.21-0.79 1.0-1.07 1.96-0.47 0.97-0.73 2.08-0.73 3.25 0.01 0.1 0.01 0.18 0.01 0.28-0.09 0.62-0.12 1.03-0.12 1.03s0.08-0.03 0.22-0.1c0.03 0.14 0.06 0.29 0.09 0.43-0.14 0.18-0.27 0.37-0.39 0.57-0.14 0.01-0.32 0.05-0.54 0.15 0.01-0.04 0.01-0.06 0.01-0.06s-7.78 2.9-8.42 3.96c-0.65 1.04-2.94-7.33-2.62-8.12 0.32-0.79 0.64-2.35-0.98-3.14-1.63-0.79-1.96-1.3-1.64-2.35 0.33-1.04-2.25 0.8-1.94 1.58 0.33 0.78 2.27-0.01 2.28 1.56 0 1.56 0.65 3.14 0.65 3.14l2.94 7.85-0.64 1.57 1.3 0.51 1.62-1.04s5.13-0.8 6.3-1.7c0.16-0.03 0.34-0.1 0.51-0.17-0.01 0.23-0.01 0.46-0.01 0.69 0 0.05 0.01 0.1 0.01 0.15-0.02 0.26-0.02 0.54-0.02 0.81-0.63 1.2-0.98 2.54-0.98 3.96 0 0.03 0.01 0.06 0.01 0.09 0 0.03 0.01 0.07 0 0.1-0.36-0.23-0.74-0.45-1-0.59-0.07-0.04-0.14-0.09-0.23-0.13-0.06-0.03-0.1-0.04-0.1-0.04v0.01c-1.69-0.77-5.86-1.38-5.86-1.38l-1.62-1.04-1.29 0.53 0.66 1.57-2.89 7.87s-0.65 1.57-0.63 3.15c0 1.58-1.95 0.8-2.27 1.58-0.32 0.79 2.29 2.61 1.95 1.56-0.33-1.04-0.01-1.57 1.62-2.37 1.61-0.8 1.28-2.37 0.96-3.15-0.34-0.78 1.91-9.18 2.56-8.13 0.62 1 7.76 3.65 8.39 3.88l-0.06 2.62c-0.59 2.32-1.15 5.42-1.53 9.49-1.85-2.26-5.53-4.03-5.53-4.03l-1.63-3.36-1.29 1.69 0.67 5.04-2.83 25.23s-0.63 5.05-0.61 10.09c0.01 5.04-1.94 2.53-2.25 5.05-0.32 2.52 2.29 8.39 1.96 5.04-0.34-3.37-0.01-5.05 1.59-7.58 1.61-2.52 1.27-7.56 0.94-10.09-0.34-2.53 1.84-29.43 2.5-26.07 0.41 2.09 3.59 6.44 5.93 9.44-0.03 1.29-0.04 2.65-0.03 4.07 0 0-1.49 10.74 3.17 12.39 0.73 3.5 1.67 6.49 2.75 8.8-0.01 0.01-0.01 0.01-0.01 0.01 0.35 1.44 1.17 2.5 2.04 3.29 1.03 1.22 2.13 1.88 3.29 1.86 0.43 0.04 0.86-0.07 1.25-0.28 2.85-1.23 5.29-6.51 6.78-14.06 4.53-1.84 2.63-12.46 2.63-12.46-0.06-1.49-0.12-2.9-0.2-4.26 2.35-2.98 6.04-7.97 6.47-10.26 0.64-3.37 3 23.53 2.69 26.05-0.32 2.52-0.62 7.57 1.0 10.09 1.63 2.52 1.97 4.2 1.65 7.55-0.3 3.37 2.27-2.52 1.93-5.05-0.33-2.52-2.27 0.01-2.29-5.03-0.01-5.04-0.68-10.08-0.68-10.08l-3.02-25.21 0.64-5.04-1.31-1.68-1.6 3.37s-5.34 2.61-6.36 5.54c-0.21-1.6-0.44-3.06-0.68-4.38l-0.47-8.48-0.14-0.03c0-0.01 0-0.04 0.01-0.06 0.24-0.17 0.53-0.39 0.87-0.66 1.58-0.77 7.05-3.42 8-4.34 0.53-1.09 3.74 7.08 3.5 7.89-0.23 0.8-0.38 2.4 1.33 3.06 1.7 0.66 2.08 1.16 1.88 2.23-0.2 1.05 2.18-0.97 1.77-1.72m-18.95-18.63c0.9 0.24 0.53 4.19-0.24 4.92-0.77 0.72-3.21 0.27-3.21 0.27s-1.84-4.3-1.2-5.33c0.65-1.03 3.77-0.07 4.64 0.15m-4.72 6.98l-2.81 0.01c-1.41-0.24 0.82-6.63 0.82-6.63 1.12 0.25 1.99 6.62 1.99 6.62m-1.44-11.96c2.79 1.8 4.02 2.1 2.17 3.33-1.85 1.22-1.84 1.82-4.62 0.93-2.79-0.9 2.45-4.25 2.45-4.25m-7.05 5.92s3.74-2.05 4.62-1.29c0.89 0.77 0.01 4.33-0.2 5.37-0.21 1.01-3.62 0.53-4.25-0.38-0.61-0.89-0.18-3.69-0.18-3.69m10.6 58.67l-7.51 0.26c-0.87-0.75-1.64-1.73-2.0-3.01 0 0 3.2-1.79 5.7-1.03 0 0 5.34-0.28 5.36 1.26 0-0.01-0.57 1.28-1.53 2.53m3.37-7.78c-0.07 0.35-0.2 0.68-0.45 0.93 0 0-6.49 3.98-13.73-0.23 0 0-0.78-2.46-0.16-3.42 0 0 1.78 1.29 4.92 1.74l1.7-37.88s-3.94 1.03-5.34-0.74c0 0-2.67-4.67-1.71-6.12 0 0 2.82 4.08 6.2 2.78 0 0 1.69 3.06 0.85 4.08 1.39 0.91 2.48 37.9 2.48 37.91 1.52-0.19 3.19-0.6 5.01-1.34 0.01 0 0.42 1.27 0.22 2.31m-1.1-39.53c-1.4 1.79-5.33 0.78-5.33 0.78-0.85-1.01 0.83-4.08 0.83-4.08 3.36 1.26 6.17-2.83 6.17-2.83 0.98 1.45-1.67 6.13-1.67 6.13" fill="#409d27"/>
</svg>

