<svg xmlns="http://www.w3.org/2000/svg" version="1" x="0" y="0" width="349" height="567" viewBox="0 0 349 567" enable-background="new 0 0 349 567.204" xml:space="preserve"><ellipse fill="#43A047" cx="68" cy="244" rx="9" ry="30"/><ellipse fill="#43A047" cx="291" cy="239" rx="9" ry="30"/><path fill="#43A047" d="M48 260c-3 15-5 31-7 47 -3 16-8 31-10 46 -6 30-8 62-5 93 1 10 5 20 5 31 0 4 0 9-2 13 0 1-1 2-2 3 0-1-2 1 0 0 -2 1-3 1-6 2 -6 2-12 4-16 9 -4 5-2 12 0 17 1 5 3 9 4 14 1 6 2 12 4 18 1 4 4 7 7 9 5 5 15 4 21 3 5-1 10-6 5-10 -7-7-6-21-9-30 -2-5-3-9-3-15 0-1 1-1 0-1 -2 2 2-1 0 0 3-1 6-2 9-3 12-4 19-12 20-25 1-11-3-21-5-32 -2-14-2-29-1-43 0-16 2-31 5-47 3-16 7-31 10-46 3-15 4-31 7-47 0-2 1-5 2-7 1-6-12-8-15-8C58 253 49 254 48 260L48 260z"/><path fill="#43A047" d="M277 250c0 14 1 29 5 43 2 7 5 13 8 19 3 7 5 14 6 22 3 14 2 29 2 44 0 16 0 32 0 48 0 14 1 29 0 43 -1 9-3 21 4 29 4 4 11 5 16 6 -3-1 0 1 1 2 2 4 2 8 2 12 0 7-3 13-5 20 -1 3-2 11-4 13 -6 3 3 5 5 5 6 1 15 2 21-1 4-2 6-6 7-11 2-6 4-12 5-19 2-7 2-14-2-21 -3-6-9-7-15-8 -2 0 0 0 0 0 -1 0-2-1-2-2 -2-1-2-4-3-6 -1-5-1-11 0-16 1-13 1-27 1-40 0-16 0-32 0-48 0-15 1-30-1-44 -1-7-2-14-4-20 -2-7-6-14-9-21 -5-13-7-28-7-42 0-2 0-5 0-7C307 244 277 244 277 250L277 250z"/><path fill="#43A047" d="M82 39c11-5 22-11 33-16 9-4 20-9 30-7 6 1 8 5 9 11 2 7 3 15 5 22 3 9 17 5 14-4 -4-16-5-37-23-43 -11-4-25 0-35 4 -14 6-27 14-41 20 -4 2-5 7-3 10C74 40 78 40 82 39L82 39z"/><path fill="#43A047" d="M287 26c-13-6-26-14-39-19 -11-5-24-8-36-5 -19 5-20 28-24 43 -3 9 12 13 14 4 2-7 3-14 5-21 2-6 4-10 9-11 9-3 21 2 29 6 12 5 23 12 34 17 4 2 8 1 10-3C292 33 291 28 287 26L287 26z"/><path fill="#43A047" d="M42 26C32 27 20 38 27 48c3 5 8 6 13 6 2 0 4 0 6-1 1 0 2 0 2 0 0 0 0-1 0 0 1 3-1 6-1 9 -1 4-1 8 0 12 1 7 3 14 4 21 3 13 6 26 14 37 4 5 11-2 7-7 -7-9-9-21-11-31 -1-5-3-10-4-16 -1-4-1-7-1-11 0-3 2-6 2-10 1-9-4-15-13-14 -3 0-7 1-9 0 -5-3 3-7 5-7C48 36 48 26 42 26L42 26z"/><path fill="#43A047" d="M49 69c2 3 2 8 2 11 1 6 3 11 5 16 3 10 10 19 15 28 3 6 12 1 9-5 -5-10-11-18-15-29 -1-5-3-9-4-14 0-4-1-9-3-13C54 58 45 63 49 69L49 69z"/><path fill="#43A047" d="M313 34c3 0 9 3 6 7 -2 3-7 1-10 1 -9-1-14 5-13 14 0 3 1 5 2 8 1 4 0 8 0 11 -1 6-3 12-4 17 -2 10-4 22-11 31 -4 5 3 12 7 7 8-10 11-23 14-35 2-7 4-14 5-21 1-4 1-8 0-11 -1-3-2-7-2-11 0 0 0 0 2 0 2 0 4 0 6 1 5 0 10-1 14-5 9-10-4-22-14-23C307 23 307 33 313 34L313 34z"/><path fill="#43A047" d="M298 61c-2 3-3 7-3 11 -1 5-2 11-4 16 -3 10-10 19-15 29 -3 6 6 11 9 5 5-9 11-18 15-28 2-5 3-10 4-15 1-4 0-9 2-12C310 61 301 56 298 61L298 61z"/><path fill="#43A047" d="M34 240c-2-1-6-4-7-6 0 0-1 1-2 2 1 0 1 0 2 0 2 0 4 0 6 0 11 0 19-5 21-16 1-5 1-10 2-15 1-7 3-14 5-21 2-6 6-13 7-19 1-7 0-13-2-19 -2-9-17-5-14 4 1 6 2 11 0 17 -2 7-6 14-8 22 -2 7-3 14-3 21 0 3 0 8-2 10 -2 2-9 1-11 1 -5 0-11 2-13 7 -6 11 6 25 16 28C39 257 43 242 34 240L34 240z"/><path fill="#43A047" d="M328 246c10-2 21-15 17-26 -2-6-7-8-13-9 -4-1-9 1-12-1 -2-1-2-6-2-9 -1-7-1-14-3-21 -2-8-5-15-8-22 -3-6-2-12 0-19 2-9-12-13-14-4 -1 6-3 11-2 17 1 7 4 13 6 20 3 7 4 14 6 21 1 5 1 10 2 15 2 11 10 16 20 17 2 0 4 0 6 0 0 0 2 0 2 0 2 0 0 0-1-1 1 2-5 6-7 7C314 234 318 249 328 246L328 246z"/><path fill="#43A047" stroke="#43A047" stroke-miterlimit="10" d="M304 135c-3-6-25-2-49 9 -4 2-8 4-12 6 -2-10-4-19-7-28 27 9 51 12 53 6 2-6-19-19-47-29 -6-2-11-4-17-5 -2-32-22-56-45-56 -24 0-43 25-45 57 0 0 0 0 0 0 -7 2-14 4-22 7 -28 10-49 23-47 29 2 6 27 3 55-7 1 0 3-1 4-1 -3 11-6 24-8 37 -4-2-9-5-14-7 -24-11-46-15-49-9s15 20 39 31c7 3 14 6 21 8 -2 15-2 30-2 46 0 15 1 29 2 43 -14-22-31-35-39-30 -9 5-3 30 12 56 9 15 19 27 28 33 -7 13-12 29-12 48 0 31 13 58 30 67 2 48 21 86 45 86 23 0 43-38 45-86 18-9 30-35 30-67 0-20-5-38-14-51 10-2 25-17 37-38 15-26 21-51 12-56 -8-5-24 8-38 29 1-11 1-22 1-34 0-19-1-38-4-55 6-2 12-4 18-7C289 155 306 141 304 135zM209 104c20 4 8 13 13 15s-3 13-10 13c0 0-10 2-14-5s-3-5-2-7S189 100 209 104zM164 86c3-9 15-24 19-18s20 9 16 13 -5 11-14 11C176 91 161 92 164 86zM177 108c2 0 8 6 10 17s5 14 3 16 -4 2-7 2 -4-1-5-4 -6 1-7 1 -1 0-1 0l0 0C169 137 175 109 177 108zM138 121c0-12 10-21 15-20s13-1 13 2 1 17 0 19 -3 9-10 8 -16-3-17-8S138 121 138 121zM203 486c-4 3-27 2-27 2s-20 2-22 0c-2-2-5-9-5-9 -2-8-5-11 7-11s39-1 43 1 9 0 9 5S207 484 203 486zM220 443c0 0-27 13-37 13s-15-1-19-3 -16-5-21-8 -6-4-7-11 -4-11 0-11 10 1 13 3 3 3 7 5 10 2 9-9 0-42 0-42l9-189c0 0-2-2-3-4 0 0-1 0-1 0 -4 2-20 1-25-1 -5-2-5-8-8-13s-4-13-3-22 7 2 9 5 13 7 22 6c8-1 10 4 11 15 1 0 2 1 2 3 1 3 0 6 0 9s5 9 5 19 3 69 3 69l3 86c0 0-2 60 0 63s1 11 14 5 16-9 16-5S220 443 220 443zM223 172c-3 5-3 11-8 13s-20 3-25 1 -6-7-6-7c0-13 2-19 11-18s19-2 22-6 9-14 9-5S227 166 223 172z"/></svg>
