<?xml version="1.0" encoding="UTF-8"?>
<svg viewBox="0 0 124 109" xmlns="http://www.w3.org/2000/svg">
<path d="m83.74 47.15l1.75 2.98 1.69-1.35c1.77 0.36 3.13-2.47 3.13-2.47 2.2-0.46 3.26-3.9 3.26-3.9 1.25-3.31-1.77-1.75-1.77-1.75 1.77 1.75 0.44 2.66 0.44 2.66-1.26-0.85-2.33 1.89-2.33 1.89-1.26-0.85-2.8 2.56-2.8 2.56s0 0-0.29-0.61c-0.29-0.61-2.6-2.04-2.6-2.04l-1.92-1.01-1.23 0.71c-1.6-2.03-2.97-2.98-2.97-2.98-0.07-0.04-0.23-0.03-0.46 0-0.01-0.04-0.02-0.06-0.02-0.06l-3.69 0.43c-1.16 1.62-4.58 2.87-5.56 3.19-0.18 0.03-0.34 0.05-0.48 0.07-4.94-0.45-1.44 1.5-1.44 1.5 0.53 0.2 0.94 0.55 1.25 0.95 0.2 0.41 0.42 0.81 0.64 1.19 0.34 0.93 0.36 1.76 0.36 1.76 0.39 4.01-6.01 6.72-6.01 6.72l0.14 31.02c0.32-0.04 0.62-0.08 0.93-0.12l0.04 3.29c6.62 2.71 11.55-2.52 13.9-5.84l-0.69 0.01-0.43 0.47-0.44-0.7-0.43-0.12-0.36-0.23-0.36-0.47-0.08-1.05 0.44-0.35-0.07-1.42 0.43-0.47 0.15-0.59 0.57-0.7v-0.59l1.46-0.59 0.51-0.23 0.07 0.23 0.87 0.23 0.22 0.12s0.36 0.12 0.66 0l0.22 1.18 0.04 0.45c0.39-0.78 0.75-1.54 1.09-2.3l1.64-0.23-0.28 1.17-1.56 3.1 1.82 1.1c0.51 1.96 3.35 2.07 3.35 2.07 1.35 2.02 4.54 1.56 4.54 1.56 3.17-0.22 0.58-2.58 0.58-2.58-0.58 2.58-1.9 1.64-1.9 1.64 0.11-1.67-2.54-1.52-2.54-1.52 0.1-1.67-3.27-1.71-3.27-1.71s0 0 0.35-0.57c0.35-0.56 0.44-3.54 0.44-3.54l-0.06-2.4-1.71-1.44c5.4-13.96 2.83-23.09-0.23-28.25l0.26-0.82 0.78 0.8zm-9.49 23.61l-0.2 1.29-0.88-0.14-0.78 1.15-0.29 0.58-1.17 0.14h-0.97l-0.58 0.58-0.58-0.86-0.59-0.14-0.48-0.29-0.49-0.58-0.1-1.29 0.58-0.43-0.1-1.73 0.58-0.57 0.2-0.72 0.78-0.86-0.01-0.72 1.95-0.72 0.68-0.28 0.1 0.28 1.17 0.28 0.29 0.14s0.48 0.14 0.88 0l0.29 1.44 0.1 0.86 0.2 1.87-0.57 0.72zm9.37-14.96l-0.21 0.81 0.27 1.07-0.72 0.28-0.23 1.23-0.04 0.57-0.86 0.62-0.76 0.42-0.27 0.69-0.72-0.41-0 0.14-0.47-0.01-0.56-0.23-0.49-0.95 0.31-0.59-0.64-1.28 0.26-0.69-0.08-0.64 0.32-1.0-0.23-0.55 1.27-1.4 0.43-0.52 0.17 0.18 0.99-0.28 0.27-0.02s0.42-0.1 0.68-0.38l0.69 0.97 0.35 0.62 0.78 1.35z" fill="#da1429"/>
<path d="m40.02 46.41l0.26 0.82c-3.05 5.18-5.58 14.31-0.13 28.25l-1.71 1.45-0.05 2.4s0.1 2.98 0.45 3.55l0.35 0.56s-3.37 0.05-3.26 1.72c0 0-2.65-0.14-2.53 1.53 0 0-1.3 0.95-1.91-1.63 0 0-2.58 2.38 0.6 2.58 0 0 3.19 0.44 4.53-1.58 0 0 2.85-0.12 3.35-2.08l1.82-1.11-1.58-3.1-0.29-1.17 1.64 0.23c0.34 0.75 0.71 1.51 1.1 2.29l0.04-0.45 0.21-1.18c0.29 0.12 0.66-0.01 0.66-0.01l0.22-0.12 0.87-0.23 0.07-0.23 0.51 0.23 1.45 0.59 0.01 0.58 0.58 0.7 0.15 0.59 0.43 0.47-0.07 1.42 0.45 0.35-0.07 1.06-0.36 0.47-0.36 0.24-0.44 0.12-0.43 0.71-0.43-0.47h-0.7c2.35 3.33 7.32 8.54 13.93 5.79l0.02-3.29c0.3 0.04 0.61 0.09 0.93 0.12l0.03-31.02s-6.42-2.69-6.04-6.71c0 0 0.03-0.83 0.35-1.76 0.21-0.38 0.43-0.78 0.63-1.2 0.31-0.41 0.71-0.75 1.24-0.96 0 0 3.5-1.96-1.45-1.5-0.15-0.02-0.3-0.04-0.48-0.07-0.98-0.33-4.41-1.56-5.57-3.18l-3.7-0.41s-0.01 0.01-0.03 0.06c-0.23-0.03-0.4-0.04-0.46 0 0 0-1.36 0.95-2.96 2.99l-1.23-0.7-1.92 1.02s-2.31 1.43-2.6 2.04l-0.29 0.61s-1.55-3.4-2.81-2.54c0 0-1.08-2.74-2.34-1.89 0 0-1.33-0.9 0.43-2.66 0 0-3.03-1.56-1.77 1.75 0 0 1.08 3.44 3.28 3.89 0 0 1.37 2.83 3.14 2.46l1.7 1.35 1.73-2.98 0.81-0.81zm8.2 23.68l0.19-1.88 0.1-0.86 0.29-1.44c0.39 0.14 0.88-0.01 0.88-0.01l0.29-0.14 1.17-0.29 0.1-0.29 0.68 0.28 1.95 0.71v0.72l0.78 0.86 0.2 0.72 0.58 0.57-0.1 1.73 0.58 0.45-0.1 1.29-0.49 0.57-0.48 0.29-0.58 0.14-0.58 0.86-0.58-0.57h-0.97l-1.17-0.14-0.29-0.58-0.78-1.15-0.88 0.14-0.2-1.29-0.57-0.71zm-8.08-15.55l0.35-0.62 0.69-0.98c0.26 0.28 0.68 0.38 0.68 0.38l0.28 0.02 0.99 0.28 0.17-0.18 0.43 0.52 1.27 1.4-0.23 0.56 0.33 1.0-0.08 0.64 0.27 0.69-0.63 1.28 0.32 0.58-0.49 0.95-0.56 0.23-0.47 0.01-0.49-0.14-0.73 0.41-0.27-0.69-0.76-0.42-0.86-0.62-0.04-0.56-0.23-1.23-0.72-0.27 0.27-1.08-0.21-0.81 0.76-1.35z" fill="#da1429"/>
<path d="m91 23.84l0.47-1.68-2.07 1.68-1.28-1.67-1.44 0.84c-2.08-1-5.1 2.35-5.1 2.35l-1.9 10.05-1.27 0.34-0.17-0.84-2 0.63c-0.44-4.46-4.62-8.12-4.62-8.12-1.08-1.06-2.92 0.38-2.92 0.38 0-2.92-0.14-4.33-0.93-5 1.73-1.73 4.83-5.29 4.83-5.29 1.44-1.18 0.8-2.68 0.8-2.68-0.96-1.84-1.44 0.51-1.44 0.51l-0.15 2.01c-2.23 3.52-5.42 4.53-5.42 4.53-0.11 0.1-0.2 0.2-0.28 0.32-0.08 0-0.12 0.01-0.12 0.01s-1.41-0.88-2.75-1.52c-0.85-0.41-1.68-0.73-2.1-0.67 0 0.01-0.01 0.01-0.01 0.01-0.01-0.01-0.01 0-0.02-0.01-0.42-0.06-1.25 0.27-2.1 0.68-1.34 0.65-2.75 1.53-2.75 1.53s-0.18-0.01-0.45 0.02c-0.07-0.12-0.17-0.23-0.29-0.34 0 0-3.19-1-5.43-4.51l-0.16-2.01s-0.48-2.34-1.44-0c0 0-0.64 1.5 0.8 2.68 0 0 3.33 3.79 5.02 5.44-0.69 0.73-1.21 2.13-0.73 4.84 0 0-1.84-1.43-2.92-0.36 0 0-4.29 3.77-4.62 8.31-0.09-0.09-0.13-0.14-0.13-0.14l-1.59-0.67-0.17 0.84-1.27-0.34-1.94-10.04s-3.04-3.35-5.11-2.33l-1.44-0.83-1.27 1.68-2.08-1.67 0.48 1.67h-0.95s2.72 3.17 5.43 2l3.67 0.33-0.95 1.51s1.61 8.2 2.56 8.54c0 0 3.2 4.01 6.88 5.01 0.04 0.01 0.07 0.02 0.12 0.03 1.95 2 4.86 2.37 7.29 2.96 1.92 0.47 3.55 0.79 4.17 1.13 0 0 1.79 0.64-3.83 3.85 0 0-0.09 0.23-0.18 0.63-0.14 0.61-0.27 1.59-0.06 2.65 0.14 3.1 4.07 4.13 4.07 4.13 0.01-0.07 0.04-0.13 0.07-0.19 0.29-0.17 0.97-0.55 1.38-0.58 0.4 0.03 1.08 0.41 1.38 0.58 0.04 0.06 0.06 0.12 0.07 0.19 0 0 3.93-1.05 4.04-4.14 0.21-1.05 0.08-2.04-0.07-2.65-0.09-0.39-0.18-0.62-0.18-0.62-5.63-3.19-3.83-3.83-3.83-3.83 0.62-0.34 2.25-0.67 4.17-1.15 2.49-0.62 5.47-1.53 7.42-3.1 3.56-1.12 6.59-4.96 6.59-4.96 0.95-0.34 2.54-8.54 2.54-8.54l-0.96-1.51 3.67-0.34c2.72 1.68 5.42-1.51 5.42-1.51l-0.95 0.01zm-34.84 6.79s-1.16 1.31-1.22 2.5l-2.05 1.17s-3.59-0.86-4.11-0.05c0 0-1.49-1.13 0.73-3.48 0 0 0.78-2.27 2.46-2.85 0 0 1.23-0.23 2.11 1.17 0 0 2.23 0.77 3.08 0.42l-1.01 1.1zm2.29-6.23c-1.68 0.17-1.44-1.58-1.44-1.58 1.92-0.93 2.15-0.34 2.15-0.34 1.04 0.99-0.71 1.93-0.71 1.93zm6.22-0.01s-1.75-0.92-0.72-1.93c0 0 0.24-0.58 2.15 0.33 0 0 0.24 1.76-1.44 1.59zm9.89 9.83c-0.52-0.82-4.1 0.06-4.1 0.06l-2.06-1.17c-0.06-1.19-1.23-2-1.23-2l-1.01-1.09c0.85 0.34 3.08-0.43 3.08-0.43 0.88-1.4 2.11-1.18 2.11-1.18 1.68 0.56 2.47 2.83 2.47 2.83 2.23 2.33 0.74 3.48 0.74 3.48z" fill="#da1429"/>
</svg>

