<?xml version="1.0" encoding="UTF-8"?>
<svg viewBox="0 0 124 109" xmlns="http://www.w3.org/2000/svg">
<path d="m69.75 54.97c0.38-0.49 0.69-1.07 0.91-1.75 0 0 0.12-0.28 0.27-0.76 0.02 0.01 0.04 0.02 0.06 0.03 1.68 0.81 4.01 2.12 4.01 2.12 2.29 0.77 2.19-0.83 2.19-0.83-0.58-0.53-3.88-2.11-5.78-3.0 0.08-0.34 0.15-0.7 0.21-1.07 0.09 0.01 0.18 0.01 0.28 0 1.86-0.1 4.54-0.1 4.54-0.1 2.38-0.45 2-1.79 2-1.79-0.71-0.17-4 0.02-6.13 0.17 0.02-0.42 0.01-0.85-0.01-1.28 1.88-0.98 4.96-2.64 5.51-3.17 0 0 0.04-1.6-2.22-0.74 0 0-2.03 1.25-3.64 2.13-0.48-1.43-1.48-2.64-3.34-3.22 0 0-0.61-0.12-1.53-0.27 1.97-3.4-0.29-5.41-1.42-6.15 0 0-0.84-0.58-2.1-0.83l-1.13-24.11-0.74 24.19-2.85 1.41c-0.54 0.36-0.87 0.65-0.87 0.65-1.3 2.42-0.4 4.43 0.39 5.54-1.17 0.35-3.22 1.12-4.47 2.47-0.12-0.07-0.24-0.13-0.4-0.19-1.75-0.65-4.2-1.72-4.2-1.72-2.36-0.55-2.09 1.04-2.09 1.04 0.6 0.45 3.79 1.62 5.79 2.34-0.15 0.47-0.22 0.98-0.14 1.55 0 0-0.07 0.32-0.14 0.83-1.97-0.82-4.85-1.99-5.56-2.06 0 0-1.27 0.99 0.84 2.18 0 0 2.53 0.86 4.26 1.57 0.14 0.06 0.28 0.1 0.4 0.12 0.03 0.56 0.1 1.18 0.25 1.81-2 0.74-5.16 1.95-5.76 2.4 0 0-0.25 1.59 2.1 1.02 0 0 2.44-1.1 4.18-1.77 0.02-0.01 0.03-0.01 0.05-0.03 0.37 0.76 0.9 1.5 1.62 2.13-1 4.29-3.17 11.28-5.46 17.82-0.93 1.84-1.37 3.91-1.48 6.03-0.4 7.53 3.33 15.63 3.53 16.07l0.84-0.24c-0.19-1.44 2.61-6.53 4.54-9.59 0.69-1.38 1.29-3.83 1.8-6.82 0.26 1.2 0.56 2.62 0.8 3.75-0.18 0.82-0.12 1.74-0.06 2.35-0.44 0.47-0.73 1.03-0.84 1.71-0.03 0.14-0.04 0.29-0.04 0.44-0.11 2.09 1.25 4.61 2.4 6.33 0.17 2.6 4.2 6.35 4.2 6.35-0.69-1.24 1.58-3.9 1.58-3.9 1.21-2.38-1.33-4.37-1.33-4.37-2.71-1.58-3.66 0.18-3.66 0.18-0.22 0.15-0.39 0.33-0.51 0.52-0.94-1.54-1.88-3.49-1.79-5.07 0.01-0.12 0.02-0.24 0.04-0.36 0.06-0.34 0.17-0.64 0.34-0.91 0.67 0.62 2.44 2.21 3.6 2.52 1 0.27 1.99-0.61 2-1.19l1.55 2.66c0.66-1.17-0.36-2.34-1.22-3.06 0.02-0.03 0.04-0.04 0.04-0.04s0.46-2.61 0.2-3.92c-0.27-1.31-1.88-1.76-1.88-1.76l-3.67-0.3c-0.33 0.1-0.59 0.28-0.8 0-0.26-1.19-0.52-2.42-0.7-3.31 2.51 1.81 5.59-0.54 5.59-0.54 0.65-3.4 0.36-5.25-0.09-6.24l0.01-0.01 0.04-0.07c0.04-0.07 0.48-1.01 0.73-2.21 1.45 5.75 3.5 9.91 5.39 12.29 2.73 3.44 3.71 10.12 3.71 10.19l0.14 0.93 0.58-0.72c2.17-2.65 4.4-13.18 4-13.64 0.15-0.36 0.24-0.77 0.27-1.21 0.3-5.64-8.87-17.61-9.69-18.68-0.02-0.13-0.32-2.04-0.52-3.35zm-6.17 15.37c-1.01-1.15-3.21-0.07-4.16 0.47 0.11-1.01 0.21-2.04 0.3-3.05 0.68 0.41 1.3 0.63 1.3 0.63 1.9 0.2 2.88-1.04 3.36-2.1 0.21 0.49 0.27 1.06 0.23 1.62-0.06 1.08-0.43 2.14-0.65 2.69-0.22-0.21-0.4-0.27-0.4-0.27zm-1.32-7.89c-0.88-0.06-1.56 0-2.1 0.12 0.04-0.61 0.09-1.21 0.13-1.79 1.71 0.81 2.83 0.42 3.54-0.2 0.1 0.91 0.2 1.8 0.33 2.67-0.76-0.74-1.91-0.79-1.91-0.79zm-7.78-16.36s0.61-2 4.72-2.8c0 0 7.45-1.64 8.88 0.21 0 0 1.88 1.14 2.08 2.75-0.05 0.23-0.04 0.45-0.01 0.63-0.08 0.47-0.32 0.98-0.8 1.5 0 0-4.76-1.26-8.12-0.17 0 0-3.23-1.44-5.84-0.06 0 0.01-2.08 0.92-0.91-2.08zm1.27 39.4c-0.4 0.63-3.46 5.54-4.38 8.52-1.05-2.65-3.15-8.72-2.85-14.33 0.1-2.0 0.52-3.95 1.39-5.66l0.01-0.03 0.01-0.03c1.48-4.21 5.8-16.87 6.04-21.29 0.02-0.42-0.01-0.74-0.07-1 0.2-0.24 1.4-1.78 1.89-2.41 0.49 0.7 1.97 2.81 2.11 3.0-0.01 0.24-0.04 0.76-0.07 1.5-0.32 6.03-1.57 26.76-4.08 31.72zm23.14-7.53l-0.02 0.04-0.01 0.04c-0.02 0.1-1.9 8.96-3.79 12.43-0.4-2.08-1.48-6.72-3.71-9.52-2.99-3.77-6.41-12.14-7.03-24.36v-0.04s-1.01-4.04-1.09-4.34c0.14-0.23 1.24-2.04 1.65-2.72 0.6 0.72 3.73 4.45 3.86 4.6 0.04 0.21 0.71 4.58 0.71 4.58l0.07 0.09c2.92 3.76 9.83 13.71 9.6 18.16-0.03 0.39-0.1 0.73-0.24 1.03z" fill="#9a9999"/>
<path d="m85.14 71.69c-0.71-1.73-1.58-4.25-1.58-4.25-1.2-2.1-2.19-0.83-2.19-0.83 0.12 1.1 2.9 7.46 2.9 7.46s1.58-0.65 0.86-2.38z" fill="#9a9999"/>
<path d="m77.1 55.6c0.16 1.08 2.64 8.14 3.31 8.73 0.68 0.59 2.51 1.56 0.86-2.08-1.65-3.65-2.54-6.17-2.54-6.17s-1.79-1.57-1.64-0.48z" fill="#9a9999"/>
<path d="m90.75 64.07s1.53-0.73 0.73-2.42c-0.81-1.69-1.82-4.16-1.82-4.16-1.32-2.03-2.23-0.7-2.23-0.7 0.18 1.09 3.33 7.29 3.33 7.29z" fill="#9a9999"/>
<path d="m85.64 53.2c-3.22-2.38-5.22-4.14-5.22-4.14s-2.33-0.49-1.66 0.38c0.67 0.87 6.28 5.83 7.15 6.01 0.88 0.18 2.96 0.14-0.27-2.25z" fill="#9a9999"/>
<path d="m41.66 25.67c-0.58 1.77-1.56 4.26-1.56 4.26-0.46 2.38 1.12 2.05 1.12 2.05 0.62-0.92 2.64-7.56 2.64-7.56s-1.61-0.53-2.2 1.25z" fill="#9a9999"/>
<path d="m42.44 33.53c-0.72-0.52-2.65-1.31-0.66 2.16 2.0 3.48 3.13 5.89 3.13 5.89s1.94 1.39 1.68 0.32c-0.27-1.07-3.42-7.86-4.15-8.38z" fill="#9a9999"/>
<path d="m84.74 30.5s-0.68-2.58-1.04-4.42c-0.36-1.83-2.04-1.5-2.04-1.5s1.21 6.83 1.73 7.82c-0.01 0 1.52 0.52 1.35-1.91z" fill="#9a9999"/>
<path d="m78.7 41.28s1.29-2.33 3.52-5.67c2.22-3.33 0.25-2.67-0.51-2.2s-4.36 7.03-4.7 8.07c-0.34 1.04 1.69-0.2 1.69-0.2z" fill="#9a9999"/>
<path d="m39.49 68.3s-0.12 2.67-0.3 4.53c-0.19 1.85 1.51 2.03 1.51 2.03s0.85-6.88 0.65-7.98c0.01 0-1.3-0.94-1.85 1.42z" fill="#9a9999"/>
<path d="m44.88 56.62s-1.11 2.43-3.06 5.93c-1.96 3.5-0.04 2.69 0.68 2.15 0.72-0.53 3.79-7.35 4.05-8.42s-1.67 0.34-1.67 0.34z" fill="#9a9999"/>
<path d="m39.56 75.56c-0.72-0.54-0.82 0.18-0.82 0.18-4.86 5.83-9.57 6.45-9.57 6.45-0.58-0.3-0.64 0.23-0.64 0.23 0.1 0.84 1.12 0.36 1.12 0.36 5.25-0.12 10.18-6.42 10.18-6.42 0.52-0.81-0.27-0.81-0.27-0.81z" fill="#9a9999"/>
<path d="m32.22 50.75s-2.46 1.04-4.22 1.67-1.19 2.23-1.19 2.23 6.59-2.17 7.49-2.82c0.01-0.01 0.29-1.58-2.08-1.07z" fill="#9a9999"/>
<path d="m37.6 48.98c-3.81 1.22-1.86 1.93-0.97 2.04s7.79-2.77 8.71-3.38-1.45-0.9-1.45-0.9-2.48 1.02-6.29 2.23z" fill="#9a9999"/>
<path d="m25.48 53.66c-7.56-0.73-10.71-4.29-10.71-4.29-0.08-0.66-0.55-0.41-0.55-0.41-0.64 0.56 0.34 1.12 0.34 1.12 3.06 4.28 11.03 4.82 11.03 4.82 0.95-0.03 0.52-0.68 0.52-0.68 0.03-0.9-0.62-0.57-0.62-0.57z" fill="#9a9999"/>
<path d="m96.35 80.45s-4.74-0.34-9.91-5.9c0 0-0.14-0.71-0.83-0.14 0 0-0.78 0.04-0.22 0.82 0 0 5.28 6 10.53 5.83 0 0 1.04 0.42 1.09-0.42 0 0-0.09-0.53-0.65-0.19z" fill="#9a9999"/>
<path d="m105.44 64.9s-0.3-0.44-0.67 0.1c0 0-4.44 1.7-11.48-1.13 0 0-0.43-0.58-0.81 0.23 0 0-0.69 0.38 0.15 0.83 0 0 7.33 3.19 12.01 0.81 0.01 0 1.13-0.06 0.81-0.84z" fill="#9a9999"/>
<path d="m35.62 13.26s4.24 2.15 6.86 9.28c0 0-0.14 0.71 0.72 0.45 0 0 0.73 0.26 0.52-0.67 0 0-2.54-7.58-7.45-9.46 0 0-0.8-0.8-1.18-0.04 0 0.01-0.12 0.53 0.53 0.43z" fill="#9a9999"/>
<path d="m82 23.74c0.87 0.23 0.7-0.47 0.7-0.47 2.38-7.21 6.54-9.51 6.54-9.51 0.66 0.07 0.52-0.45 0.52-0.45-0.4-0.75-1.17 0.07-1.17 0.07-4.84 2.04-7.13 9.69-7.13 9.69-0.18 0.94 0.54 0.66 0.54 0.66z" fill="#9a9999"/>
</svg>

