<?xml version="1.0" encoding="UTF-8"?>
<svg viewBox="0 0 124 109" xmlns="http://www.w3.org/2000/svg">
<path d="m58.05 100.03s-1.27 0.01-1.07-0.53c0.2-0.54 0.13-1.61 0.64-1.71 0 0 0.76-0.19 1.5 1.82-0.01 0.01-0.15 0.46-1.06 0.42z" fill="#27bdbe"/>
<path d="m67.06 99.94s1.27-0.01 1.06-0.55-0.17-1.61-0.68-1.7c0 0-0.77-0.17-1.46 1.85 0.01 0 0.16 0.45 1.07 0.39z" fill="#27bdbe"/>
<path d="m89.94 18.34l-0.22-0.28s-2.94 0.23-4.01 1.29l-0.23-0.38s-9.89 1.66-11.86 0.91l-0.1 0.48-1.2-0.09s-2.59 2.05-3.01 3.31c-0.42 1.25-0.11 0.29-0.11 0.29s-2.17 0.6-2.15 2.13l-0.97 0.4-0.17 1.75-0.6 0.47-1.08-0.09 0.1-0.96-0.66-0.28h-0.23l-0.07-0.09-1.66 0.07-1.66-0.03-0.06 0.09-0.23 0.01-0.65 0.29 0.12 0.96-1.09 0.11-0.56-0.43-0.22-1.78-0.98-0.38c-0.01-1.54-2.2-2.09-2.2-2.09s0.34 0.95-0.12-0.29-3.08-3.23-3.08-3.23l-1.2 0.11-0.12-0.48c-1.95 0.8-11.88-0.64-11.88-0.64l-0.21 0.39c-1.1-1.05-4.04-1.21-4.04-1.21l-0.22 0.29c-1.97-1.23-4.58-0.43-4.58-0.43 0.02 1.73 4.48 1.4 4.48 1.4l0.45 0.77c0.12 0.67 3.71-0.04 3.71-0.04l0.33 0.38c0.45 0.95 11.45 0.55 11.45 0.55l0.54-0.3c-0.32 1.25 3.85 3.33 3.85 3.33-0.86 1.17 1.66 1.91 1.66 1.91l-0.43 0.48 0.08 0.87-0.07-0.01-1.5 1.94 0.44 0.47s-2.59 1.85-1.05 2.71c0 0 0.49 0.26 1.19 0.41 0.51 0.05 1.56 0.08 2.77-0.29 0.13-0.07 0.27-0.17 0.4-0.27h0.15c0.3-0.14 0.6-0.27 0.91-0.38 0.01-0.01 0.02-0.01 0.03-0.02 0 0 0.91-0.38 2.33-0.56 0.04-0.01 0.07-0.01 0.1-0.01 0.07-0.01 0.13-0.01 0.2-0.02 0.06-0.01 0.12-0.01 0.17-0.01 0.04-0.01 0.08-0.01 0.12-0.01 0.07-0.01 0.14-0.01 0.2-0.01 0.04-0.01 0.08-0.01 0.12-0.01 0.07 0 0.14-0.01 0.2-0.01h0.16 0.15 0.2c0.04 0 0.08 0 0.12 0.01 0.07 0 0.13 0 0.2 0.01 0.04 0.01 0.09 0.01 0.13 0.01 0.05 0.01 0.11 0.01 0.17 0.01 0.07 0.01 0.13 0.01 0.2 0.01 0.04 0.01 0.07 0.01 0.1 0.01 1.43 0.14 2.35 0 2.35 0 0.01 0.01 0.01 0.01 0.03 0.02 0.3 0.1 0.61 0.22 0.92 0.35l0.28-0.01c0.17 0.13 0.35 0.24 0.53 0.33 1.39 0.34 2.52 0.18 2.77 0.13 0.62-0.17 1.05-0.41 1.05-0.41 1.51-0.88-1.12-2.68-1.12-2.68l0.43-0.48-1.54-1.91h-0.03l0.06-0.87-0.44-0.47s2.5-0.8 1.61-1.94c0 0 4.12-2.16 3.77-3.41l0.55 0.28s11 0.17 11.43-0.81l0.32-0.39s3.6 0.63 3.71-0.04l0.42-0.78s4.47 0.24 4.45-1.49c0.01 0.01-2.62-0.72-4.57 0.55z" fill="#27bdbe"/>
<path d="m77.14 36.53l1.15-2.45s-0.03-0.81-0.78-0.24l-1.46 1.46c-1.02-1.07-2.27-2.12-3.75-3.09 0 0 1.13 3.54-2.37 2.81 0 0-1.57 0.35-3.43-0.29l-0.01-0.05c-0.38-0.17-0.75-0.33-1.11-0.45l-0.03-0.01s-0.92-0.36-2.35-0.51c-0.04-0.01-0.07-0.01-0.11-0.01-0.07-0.01-0.12-0.01-0.2-0.01-0.06-0.01-0.12-0.01-0.17-0.01-0.04-0.01-0.09-0.01-0.13-0.01-0.07 0-0.14-0.01-0.2-0.01h-0.12c-0.07 0-0.14-0.01-0.2-0.01-0.04 0.01-0.1 0.01-0.15 0.01h-0.16c-0.07 0-0.13 0.01-0.2 0.01-0.04 0-0.08 0-0.12 0.01-0.07 0-0.14 0.01-0.2 0.01-0.04 0.01-0.09 0.01-0.13 0.01-0.06 0.01-0.12 0.01-0.17 0.01-0.07 0.01-0.12 0.02-0.19 0.03-0.04 0.01-0.07 0.01-0.11 0.01-1.42 0.17-2.33 0.56-2.33 0.56-0.01 0.01-0.03 0.01-0.03 0.02-0.36 0.14-0.74 0.29-1.11 0.48l-0.01 0.05c-1.84 0.69-3.42 0.37-3.42 0.37-3.48 0.81-2.42-2.76-2.42-2.76-1.44 0.98-2.62 2.04-3.62 3.1l-1.41-1.35c-0.76-0.56-0.78 0.26-0.78 0.26l1.15 2.31c-3.54 4.5-3.8 8.86-3.8 8.86 0.2-1.45 3.45-3.12 3.45-3.12 0.4 0.04 0.87 0.08 1.4 0.1 0.47 0.08 0.79 0.15 0.79 0.15 0.77 0.26 1.89 0.42 3.23 0.53 3.15 0.82 6.96 0.97 10.31 0.86 3.35 0.04 7.15-0.2 10.29-1.09 1.34-0.14 2.46-0.33 3.23-0.6 0 0 0.31-0.09 0.79-0.17 0.53-0.04 0.99-0.09 1.39-0.14 0 0 3.29 1.59 3.52 3.04 0.02-0.01-0.33-4.29-3.88-8.66z" fill="#27bdbe"/>
<path d="m42.94 46.72l0.94 0.28c0.35-0.78 0.82-1.56 1.44-2.3-0.77 0.47-1.88 1.24-2.38 2.02z" fill="#27bdbe"/>
<path d="m78.36 44.32c0.64 0.73 1.14 1.52 1.51 2.31l0.94-0.3c-0.51-0.79-1.67-1.54-2.46-2.0z" fill="#27bdbe"/>
<path d="m82.28 45.87l-1.31 0.41-0.15 0.04-0.94 0.3c-0.38-0.78-0.88-1.57-1.51-2.31-0.47-0.28-0.81-0.45-0.81-0.45-0.4 0.06-0.86 0.1-1.4 0.14-0.47 0.09-0.79 0.17-0.79 0.17-0.76 0.28-1.89 0.47-3.23 0.6-3.13 0.9-6.94 1.12-10.29 1.09-3.35 0.11-7.16-0.04-10.3-0.85-1.34-0.1-2.48-0.28-3.24-0.53 0 0-0.31-0.07-0.79-0.15-0.53-0.03-1-0.07-1.4-0.1 0 0-0.34 0.17-0.81 0.46-0.61 0.73-1.08 1.52-1.44 2.3l-0.94-0.28-0.17-0.05-1.18-0.34c-0.97-0.15-0.54 0.56-0.54 0.56l2.29 1.53c-0.62 1.96-0.6 3.54-0.6 3.54 0.96-1.94 3.57-2.06 3.57-2.06 0.58 0.24 1.67 0.41 3.06 0.51 0.64 0.12 1.41 0.22 2.25 0.28 3.15 0.82 6.96 0.96 10.31 0.85 3.35 0.03 7.15-0.2 10.29-1.09 0.84-0.09 1.6-0.2 2.24-0.34 1.4-0.14 2.48-0.34 3.05-0.58 0 0 2.62 0.07 3.62 1.98 0 0-0.01-1.53-0.65-3.44l2.36-1.67c0.01-0.01 0.42-0.73-0.54-0.55z" fill="#27bdbe"/>
<path d="m74.47 51.87c-0.64 0.14-1.4 0.24-2.24 0.33-3.14 0.9-6.94 1.12-10.29 1.09-3.35 0.11-7.16-0.03-10.31-0.85-0.85-0.07-1.6-0.15-2.25-0.28-1.4-0.11-2.48-0.28-3.06-0.52 0 0-0.7 0.04-1.51 0.34l-0.15 0.18c-0.02 0.01-0.05 0.01-0.07 0.01-0.58 0.61-0.99 1.29-1.28 1.97-1.84 3.27-0.81 5.15-0.81 5.15 0.95-2.61 5.98-1.32 5.98-1.32 0.77 0.26 1.9 0.42 3.24 0.53 3.15 0.82 6.96 0.97 10.31 0.85 3.34 0.04 7.15-0.2 10.29-1.09 1.34-0.14 2.46-0.33 3.23-0.6 0 0 5.0-1.41 6 1.19 0 0 0.99-1.91-0.93-5.13-0.3-0.67-0.73-1.33-1.33-1.94-0.02 0-0.05-0.01-0.08-0.01-0.04-0.06-0.1-0.12-0.15-0.17-0.81-0.28-1.52-0.3-1.52-0.3-0.56 0.25-1.65 0.44-3.04 0.58z" fill="#27bdbe"/>
<path d="m79.96 59.22c0.32 0.42 0.56 0.88 0.76 1.31l0.6-0.4c-0.32-0.46-0.81-0.74-1.35-0.92z" fill="#27bdbe"/>
<path d="m42.77 60.51l0.59 0.37c0.17-0.42 0.41-0.84 0.69-1.26-0.53 0.17-0.97 0.45-1.28 0.89z" fill="#27bdbe"/>
<path d="m85.84 59.73l-4.11 0.14h-0.03l-0.4 0.26-0.6 0.4c-0.2-0.44-0.44-0.89-0.76-1.31-1.82-0.56-4.42 0.17-4.42 0.17-0.76 0.27-1.89 0.47-3.23 0.6-3.13 0.9-6.94 1.12-10.29 1.09-3.35 0.11-7.15-0.03-10.3-0.85-1.34-0.1-2.47-0.28-3.23-0.53 0 0-2.6-0.67-4.42-0.07-0.29 0.41-0.52 0.83-0.69 1.26l-0.59-0.37-0.3-0.19h-0.18l-3.96-0.04c-0.98 0.1-0.32 0.68-0.32 0.68l4.87 1.55c-0.27 1.43-0.11 2.56-0.11 2.56 0.97-0.88-0.45-0.86 2.05-1.47 2-0.6 6.33 1.47 6.33 1.47 3.27 0.97 7.36 1.15 10.93 1.03 3.57 0.04 7.66-0.23 10.9-1.27 0 0 3.79-2.16 6.3-1.61s1.09 0.56 2.09 1.42c0 0 0.14-1.1-0.16-2l4.96-1.71c-0.02-0.03 0.62-0.61-0.35-0.69z" fill="#27bdbe"/>
<path d="m79.31 64.92c-2.51-0.55-6.3 1.61-6.3 1.61-3.24 1.05-7.33 1.31-10.9 1.28-3.57 0.12-7.67-0.05-10.93-1.03 0 0-3.83-2.07-6.33-1.47-2.5 0.6-2.06 1.4-2.07 1.27-0.73 1.45-0.17 3.47-0.17 3.47 1.84-0.98 9.94 2 9.94 2 2.96 0.95 6.47 1.14 9.62 1.01 3.15 0.06 6.65-0.2 9.6-1.23 0 0 8.03-3.17 9.88-2.23 0 0 0.53-2.02-0.23-3.46-0.01 0.12 0.41-0.68-2.1-1.23z" fill="#27bdbe"/>
<path d="m80.87 71.22c0.03-0.02 0.05-0.03 0.08-0.04-0.04-0.01-0.07-0.01-0.11-0.01 0.01 0.02 0.02 0.04 0.03 0.06z" fill="#27bdbe"/>
<path d="m86.69 71.57l-4.97-0.44c-0.03 0.13-0.04 0.2-0.04 0.2-0.18-0.1-0.43-0.14-0.72-0.16-0.03 0.01-0.05 0.03-0.08 0.04-0.01-0.02-0.02-0.04-0.04-0.05-2.71-0.1-9.05 2.4-9.05 2.4-2.95 1.01-6.45 1.28-9.6 1.23-3.15 0.12-6.65-0.06-9.62-1.0 0 0-8.09-2.99-9.94-2.01 0 0-0.02-0.07-0.04-0.18l-4.83 0.53s-0.79 0.43 0.14 0.72l4.04 0.76 0.64-0.23c-0.01 0.05-0.03 0.1-0.04 0.14-0.21 0.97 0.16 4.42 0.16 4.42 3.04-1.19 12.33 2.08 12.33 2.08 2.71 0.36 5.14 0.47 7.22 0.44 2.08-0.01 4-0.17 7.21-0.6 0 0 9.22-3.47 12.28-2.35 0 0 0.29-3.46 0.06-4.43-0.02-0.06-0.04-0.13-0.07-0.2l0.81 0.28 4.04-0.84c0.93-0.33 0.12-0.73 0.12-0.73z" fill="#27bdbe"/>
<path d="m87.5 84.64l-6.42-2.14c-0.04 0.01-0.08 0.01-0.12 0.02 0.14-1.2 0.13-2.29-0.28-2.71 0 0-0.01-0.34-0.21-0.81-3.79-0.14-10.98 2.56-10.98 2.56-2.71 0.43-5.12 0.59-7.21 0.6-2.08 0.04-4.5-0.07-7.22-0.44 0 0-7.25-2.54-11.03-2.31-0.19 0.46-0.2 0.81-0.2 0.81-0.4 0.43-0.39 1.51-0.21 2.71l-6.35 2.28s-0.79 0.74 0.41 0.86l5.06-0.18 1.28-0.89c0.32 1.3 0.65 2.34 0.65 2.34 1.94-2.62 8.26-1.82 8.26-1.82 3.15 0.45 6.46 0.54 9.39 0.47 2.94 0.01 6.25-0.15 9.38-0.68 0 0 6.3-0.94 8.29 1.64 0 0 0.33-1.09 0.61-2.44l1.43 0.94 5.07 0.07c1.21-0.14 0.4-0.87 0.4-0.87z" fill="#27bdbe"/>
<path d="m71.72 87.03c-3.14 0.52-6.45 0.68-9.38 0.67-2.94 0.07-6.25-0.01-9.4-0.46 0 0-4.67-0.58-7.21 0.92 0.64 1.72 1.49 3.29 1.49 3.29 0.88 1.34 1.52 0.08 1.52 0.08 1.18-2.04 4.78-1.11 4.78-1.11 0.57 0.21 1.3 0.41 2.08 0.59 1.99 0.59 4.67 1.21 6.86 1.1 2.19 0.06 4.86-0.62 6.83-1.26 0.79-0.2 1.5-0.41 2.07-0.64 0 0 3.58-1.0 4.8 1.0 0 0 0.67 1.25 1.52-0.12 0 0 0.8-1.55 1.39-3.25-2.54-1.53-7.36-0.82-7.36-0.82z" fill="#27bdbe"/>
<path d="m42.78 68.31c-0.01 0.01-0.01 0.01-0.01 0.01 0.01 0 0.01 0 0.01-0.01z" fill="#27bdbe"/>
<path d="m81.44 67.88c0-0.01-0.01-0.01-0.01-0.01-0.01 0.01 0 0.01 0.01 0.01z" fill="#27bdbe"/>
<path d="m80.95 71.17c0.28 0.02 0.54 0.07 0.72 0.16 0 0 0.02-0.07 0.04-0.2l-0.58-0.04c-0.07 0.02-0.14 0.05-0.18 0.09z" fill="#27bdbe"/>
<path d="m81.5 97.05c-0.03-0.05-0.04-0.09-0.04-0.09l-5.28-3.83h-0.01c-0.03-0.01-0.07-0.01-0.1-0.01-0.06-0.01-0.11-0.01-0.17-0.01 0.06-0.1 0.11-0.2 0.17-0.32-0.24-0.34-0.56-0.58-0.92-0.74l-0.01-0.01c-0.06-0.03-0.12-0.06-0.18-0.07v-0.01c-0.06-0.03-0.12-0.05-0.17-0.07-0.01 0-0.01 0-0.01-0.01-0.07-0.02-0.12-0.04-0.18-0.05-0.01 0-0.01-0.01-0.01-0.01l-0.18-0.04h-0.01c-0.06-0.01-0.12-0.02-0.18-0.04h-0.01c-0.06-0.01-0.12-0.02-0.17-0.03h-0.02c-0.06-0.01-0.12-0.01-0.17-0.03h-0.02c-0.06-0.01-0.12-0.01-0.17-0.01-0.01 0-0.01-0.01-0.03-0.01-0.06-0.01-0.12-0.01-0.17-0.01h-0.03-0.16-0.03c-0.05 0-0.11 0-0.16 0.01h-0.04c-0.05 0.01-0.1 0.01-0.15 0.01-0.01 0.01-0.03 0.01-0.04 0.01-0.05 0-0.1 0.01-0.14 0.01-0.01 0.01-0.03 0.01-0.04 0.01-0.04 0.01-0.09 0.01-0.13 0.01-0.02 0-0.03 0-0.05 0.01-0.04 0.01-0.07 0.01-0.11 0.01-0.02 0.01-0.04 0.01-0.06 0.01-0.04 0.01-0.07 0.01-0.1 0.02-0.02 0-0.04 0.01-0.07 0.01-0.03 0.01-0.05 0.01-0.08 0.01-0.03 0.01-0.05 0.01-0.08 0.01-0.02 0-0.04 0.01-0.05 0.01-0.03 0.01-0.06 0.01-0.1 0.02-0.01 0-0.02 0.01-0.03 0.01-0.28 0.05-0.45 0.1-0.45 0.1-0.56 0.23-1.28 0.44-2.07 0.64-1.85 0.6-4.31 1.24-6.42 1.26-0.14 0-0.28 0.01-0.41-0.01-0.14 0.01-0.28 0.01-0.41 0.01-2.11 0.01-4.58-0.56-6.45-1.12-0.79-0.18-1.51-0.38-2.08-0.59 0 0-0.17-0.04-0.45-0.09-0.01-0.01-0.03-0.01-0.03-0.01l-0.09-0.01c-0.02-0.01-0.04-0.01-0.06-0.01-0.03 0-0.05-0.01-0.07-0.01s-0.06-0.01-0.08-0.01c-0.02 0-0.04-0.01-0.06-0.01-0.04-0.01-0.07-0.01-0.1-0.01-0.02 0-0.04 0-0.05-0.01l-0.12-0.01c-0.01 0-0.03-0.01-0.04-0.01-0.04-0.01-0.09-0.01-0.13-0.01-0.01 0-0.03 0-0.04-0.01-0.05-0.01-0.1-0.01-0.14-0.01h-0.04c-0.04-0.01-0.1-0.01-0.15-0.01h-0.04c-0.05-0.01-0.1 0-0.16 0h-0.03c-0.06 0-0.11 0-0.17 0.01h-0.03c-0.06 0-0.11 0-0.17 0.01h-0.02c-0.06 0.01-0.12 0.01-0.17 0.02h-0.02c-0.06 0.01-0.12 0.01-0.18 0.02h-0.01c-0.07 0.01-0.12 0.02-0.18 0.04h-0.01c-0.07 0.01-0.12 0.03-0.18 0.04 0 0-0.01 0.01-0.01 0.01-0.06 0.02-0.12 0.04-0.18 0.05h-0.01c-0.07 0.02-0.12 0.04-0.18 0.06 0 0.01-0.01 0.01-0.01 0.01-0.06 0.02-0.12 0.04-0.17 0.07 0 0-0.01 0-0.01 0.01-0.06 0.02-0.12 0.05-0.17 0.08 0 0-0.01 0-0.01 0.01-0.35 0.17-0.66 0.42-0.9 0.77 0.05 0.1 0.1 0.21 0.17 0.32-0.05 0-0.1 0.01-0.16 0.01-0.04 0.01-0.07 0.01-0.11 0.01l-5.18 3.96s-0.02 0.03-0.04 0.09c-0.08 0.18-0.21 0.62 0.31 0.63 0.1 0.01 0.21-0.01 0.34-0.04l4.59-1.63 0.6-0.78 0.63-0.81c0.34 0.59 0.68 0.84 1.0 0.89 0.99-0.1 1.8-2.08 1.8-2.08 0.1-0.1 0.2-0.19 0.28-0.27 0.1-0.2 0.3-0.44 0.77-0.46 0.12-0.03 0.21-0.04 0.31-0.03 0.21-0.03 0.36 0.04 0.47 0.1 1.47 0.33 0.07 1.35 0.07 1.35-1.84 1.0-1.01 3.83-0.88 3.96 0.02 0.03 0.04 0.04 0.07 0.07 0.4 0.39 0.78 0.53 1.1 0.55 0.56-0.04 0.92-0.44 0.92-0.44 0.16-1.64 1.16-2.6 1.16-2.6 0.15-0.12 0.3-0.14 0.43-0.12h0.01s0.01 0 0.01 0.01c0.26 0.06 1.4 1.2 1.92 1.79 0.34 0.48 0.57 0.88 0.57 0.88 0.58 2.12 1.8 2.33 2.32 2.31h0.04c0.04-0.01 0.09-0.01 0.12-0.01 0.03 0 0.06 0.01 0.09 0.01 0.03-0.01 0.06-0.01 0.09-0.01 0.04 0.01 0.07 0.01 0.12 0.01h0.04c0.53 0.01 1.73-0.22 2.27-2.37 0 0 0.23-0.41 0.56-0.89 0-0.6 1.59-1.78 1.88-1.84h0.01c0.05-0.01 0.11-0.01 0.16 0h0.01c0.08 0.01 0.26 0.12 0.26 0.12 0.43 0.26 1.02 0.92 1.22 2.57 0 0 0.37 0.39 0.94 0.41 0.32-0.03 0.69-0.17 1.08-0.56 0.02-0.03 0.04-0.04 0.06-0.07 0.14-0.14 0.9-2.98-0.96-3.94 0 0-1.43-1 0.04-1.35 0.11-0.08 0.27-0.14 0.47-0.12 0.09-0.01 0.19-0.01 0.31 0.02 0.46 0.01 0.67 0.24 0.77 0.44 0.1 0.08 0.19 0.17 0.29 0.27 0 0 0.85 1.96 1.85 2.04 0.33-0.04 0.66-0.3 0.98-0.91l0.65 0.8 0.62 0.77 4.62 1.52c0.14 0.03 0.26 0.04 0.35 0.04 0-0.04 0.36-0.47 0.28-0.65z" fill="#27bdbe"/>
</svg>

