<?xml version="1.0" encoding="UTF-8"?>
<svg viewBox="0 0 124 109" xmlns="http://www.w3.org/2000/svg">
<path d="m104.42 32.9s-4.43-2.98-14.21 2c0 0-14.27 14.65-19.93 19.68l0.35-0.47c-0.18-0.94-0.59-1.83-1.18-2.64 0.34-0.36 0.69-0.85 0.79-1.46 0 0 1.38-2.75 2.06-3.28 0 0 0.58-1.33 0.58-2.48 0 0 2.42-2.72 2.53-5.75 0 0 0.35-3.09 0.93-3.72 0 0-0.34-0.71-0.23-0.96h0.46l-0.1-0.27 0.69-0.18-0.12-0.43 0.69-0.36 0.34-0.17-0.23-0.28 0.57-0.08-0.34-0.35 0.68-0.01 0.47-0.36 0.8-0.17-0.01-0.27h-0.56l-0.69 0.17 0.12-0.34-0.47-0.42-0.9 0.94-1.26 0.08 0.23 0.7-1.26 0.61 0.23 0.97-0.57 0.09 0.23 0.45-0.81 0.62-0.01 2s-0.11 1.34-0.57 2.21c0 0-1.6 1.06-2 4.43 0 0-0.92 2.38-2.42 3.72 0 0-0.69 1.75-0.81 2.21-0.04 0.1-0.04 0.16-0.04 0.21-0.15 0.1-0.72 0.45-1.1 0.76-0.12-0.1-0.26-0.18-0.38-0.28 0.36-0.61 0.57-1.26 0.56-1.96 0.01-1.75-1.25-3.27-3.15-4.18 0.49-1.32 1.33-4.96 1.33-4.96 0.53-0.62 3.87-6.42 3.87-6.42-0.74-0.14-3.99 5.67-3.99 5.67-0.26 0.18-1.45 4.71-1.65 5.51-1.01-0.4-2.16-0.64-3.39-0.65-1.07 0.01-2.1 0.17-3.0 0.49-0.23-0.94-1.35-5.29-1.6-5.46 0 0-3.21-5.82-3.96-5.7 0 0 3.31 5.83 3.83 6.43 0 0 0.78 3.5 1.28 4.88-2.12 0.85-3.54 2.46-3.54 4.32-0.01 0.73 0.21 1.42 0.61 2.05-0.16 0.12-0.33 0.22-0.47 0.35-0.34-0.34-1.1-0.82-1.29-0.94 0-0.04-0.01-0.1-0.05-0.21-0.12-0.45-0.79-2.21-0.79-2.21-1.48-1.33-2.39-3.73-2.39-3.73 0.12-3.38-1.47-4.44-1.47-4.44-0.46-0.89-0.57-2.21-0.57-2.21l0.01-2-0.8-0.62 0.23-0.44-0.57-0.09 0.23-0.98-1.26-0.62 0.23-0.7-1.25-0.09-0.92-0.96-0.46 0.43 0.11 0.34-0.68-0.17-0.57 0.01-0.01 0.26 0.8 0.18 0.46 0.36h0.69l-0.35 0.34 0.58 0.1-0.23 0.27 0.35 0.17 0.69 0.35-0.12 0.43 0.69 0.19-0.12 0.26 0.46 0.01c0.1 0.27-0.24 0.98-0.24 0.98 0.57 0.61 0.91 3.73 0.91 3.73 0.1 3.03 2.5 5.76 2.5 5.76 0 1.16 0.57 2.48 0.57 2.48 0.69 0.53 2.04 3.29 2.04 3.29 0.14 0.76 0.62 1.34 1.04 1.7-0.23 0.34-0.42 0.68-0.58 1.04-0.15 0.31-0.27 0.64-0.35 0.97-6.19-5.78-18.68-18.73-18.68-18.73-9.73-5.54-14.19-2.6-14.19-2.6-2.97 7.76 5.31 14.11 5.47 14.21-0.64 0.24-0.85 0.65-0.85 0.65-2.12 3.81 6.54 10.39 6.54 10.39 0.53 0.53 3.98 1.09 8.21 1.59-2.06 0.02-0.8 0.56-0.8 0.56-0.85 2.32 2.53 3.6 2.53 3.6 0.52 0.4 6.57-0.32 11.15-0.92 0.02 0.1 0.04 0.18 0.07 0.28-0.59 0.2-1.44 0.6-2.06 1.42 0 0-2.95 2.4-3.89 2.66 0 0-1.34 1.21-2.08 2.51 0 0-3.83 1.85-5.88 5.21 0 0-2.27 3.31-3.17 3.72 0 0-0.15 0.95-0.43 1.21l-0.39-0.23-0.08 0.35-0.7-0.14-0.18 0.56-0.83 0.05-0.41 0.04 0.03 0.41-0.56-0.18 0.07 0.56-0.59-0.34-0.62 0.17-0.81-0.19-0.17 0.3 0.49 0.28 0.71 0.14-0.34 0.35 0.14 0.7 1.41-0.62 1.16 0.53 0.25-0.91 1.49-0.08 0.42-1.2 0.56 0.18 0.09-0.61 1.09-0.3 0.96-1.69s0.94-1.44 1.92-2.21c0 0 2.07-0.4 4.12-4.23 0 0 2.33-2.23 4.47-2.99 0 0 1.72-1.65 2.11-2.08 0.09-0.1 0.15-0.17 0.17-0.21 0.34-0.06 2.11-0.36 2.02-0.65l0.09-1.24c1.53 2.33 5.15 3.99 9.38 4.0 4.51 0.01 8.35-1.85 9.69-4.45l0.12 1.92c-0.07 0.28 1.7 0.59 2.02 0.66 0.04 0.04 0.09 0.11 0.17 0.2 0.39 0.45 2.1 2.1 2.1 2.1 2.14 0.77 4.45 3.02 4.45 3.02 2.02 3.85 4.1 4.27 4.1 4.27 0.95 0.77 1.91 2.21 1.91 2.21l0.95 1.7 1.08 0.29 0.08 0.61 0.56-0.18 0.41 1.21 1.49 0.08 0.24 0.91 1.16-0.52 1.4 0.62 0.14-0.69-0.32-0.35 0.7-0.14 0-0.28-0.17-0.3-0.81 0.2-0.63-0.18-0.6 0.34 0.08-0.56-0.56 0.18 0.03-0.41-0.4-0.03-0.83-0.07-0.17-0.56-0.71 0.14-0.07-0.35-0.39 0.21c-0.27-0.24-0.42-1.21-0.42-1.21-0.9-0.41-3.15-3.75-3.15-3.75-2.01-3.35-5.83-5.25-5.83-5.25-0.74-1.29-2.07-2.52-2.07-2.52-0.94-0.26-3.87-2.68-3.87-2.68-0.77-1.0-1.86-1.39-2.42-1.53 0.07-0.21 0.12-0.43 0.17-0.64 4.64 0.65 11.38 1.51 11.94 1.1 0 0 3.4-1.26 2.56-3.6 0 0 1.26-0.52-0.8-0.55 4.24-0.48 7.68-1.02 8.22-1.55 0 0 8.7-6.54 6.6-10.36 0 0-0.21-0.39-0.85-0.65 0.12-0.12 8.46-6.4 5.53-14.19m-68.72 19.49c-0.42-0.36-0.83-0.69-1.23-1.01l16.48 7.46c-9.82-2.38-15.26-6.45-15.26-6.45m34.09 5.24c-8.88-5.89-17.59-0.04-17.59-0.04l-0.69-1.13c0.81-3.52 4.76-6.2 10-6.18 4.83 0.01 8.81 2.79 9.52 6.41l-0.74 0.94zm17.61-5.29s-5.46 4.03-15.29 6.37l16.52-7.36c-0.39 0.3-0.8 0.65-1.23 0.99" fill="#ffa814"/>
<path d="m80.45 93.39h-0.69l0.34-0.46-0.57-0.12 0.23-0.34-0.35-0.23-0.68-0.46 0.12-0.57-0.69-0.23 0.12-0.34h-0.46c-0.12-0.34 0.23-1.25 0.23-1.25-0.57-0.81-0.9-4.82-0.9-4.82-0.1-3.92-2.5-7.45-2.5-7.45 0.01-1.48-0.56-3.21-0.56-3.21-0.69-0.69-2.05-4.24-2.05-4.24-0.04-0.41-0.16-0.77-0.3-1.09-0.34 0.8-0.71 1.45-1.26 2.08 0.04 0.03 0.07 0.06 0.1 0.09-7.89 5.62-15.09 1.65-17.8-0.3-0.76-0.19-1.2-0.83-1.55-1.64-0.1-0.26-0.2-0.52-0.29-0.79-0.23 0.4-0.41 0.86-0.47 1.41 0 0-1.39 3.54-2.08 4.23 0 0-0.57 1.71-0.58 3.19 0 0-2.4 3.52-2.54 7.44 0 0-0.35 3.99-0.92 4.8 0 0 0.34 0.92 0.23 1.26l-0.46-0.01 0.12 0.35-0.69 0.23 0.11 0.57-0.69 0.46-0.34 0.23 0.23 0.35-0.58 0.1 0.35 0.45-0.69-0.01-0.46 0.46-0.79 0.23-0.01 0.34h0.57l0.69-0.21-0.12 0.45 0.46 0.55 0.92-1.24 1.25-0.1-0.22-0.92 1.26-0.81-0.23-1.25 0.58-0.12-0.23-0.57 0.8-0.8 0.01-1.94s0.12-1.73 0.58-2.87c0 0 1.6-1.38 1.5-5.72 0 0 0.42-1.39 1.14-2.81-0.04 0.48-0.06 0.99-0.07 1.51 0 0.04 0.01 0.1 0.01 0.15-0.01 0.04-0.01 0.08-0.01 0.12-0.03 7.88 5.3 14.29 11.89 14.31 6.59 0.01 11.96-6.36 11.98-14.25v-0.14c0-0.04 0.01-0.08 0-0.12 0.01-0.02 0.01-0.03 0.01-0.05 0.35 0.89 0.54 1.53 0.54 1.53-0.12 4.36 1.47 5.72 1.47 5.72 0.46 1.16 0.57 2.88 0.57 2.88v1.95l0.8 0.8-0.23 0.57 0.57 0.12-0.23 1.25 1.25 0.81-0.23 0.91 1.25 0.12 0.92 1.24 0.46-0.54-0.12-0.46 0.69 0.23 0.57 0.01v-0.35l-0.8-0.22-0.45-0.48zm-8.48-11.29l-0.55 0.55c-12.22 12.76-20.67-1.9-20.67-1.9-0.2-1.07-0.32-2.19-0.31-3.35 0.01-1.98 0.33-3.88 0.92-5.59 0 0 0.02 12.26 10.05 5.57 0 0 8.82 6.32 10.04-3.95l0.27-1.44s0.23 0.56 0.35 1.18h0.01c0.34 1.35 0.52 2.81 0.52 4.29-0.01 1.64-0.23 3.19-0.63 4.64" fill="#ffa814"/>
</svg>

