<svg xmlns="http://www.w3.org/2000/svg" version="1.1" x="0" y="0" width="411.9" height="352.3" viewBox="0 0 411.9 352.3" enable-background="new 0 0 411.899 352.324" xml:space="preserve"><ellipse fill="#FFA000" cx="204.9" cy="170.2" rx="48" ry="35.5"/><path fill="#FFA000" d="M154.8 129.5c-25.2-29.6-85.9-92.8-85.9-92.8s-60.5-28-66-15 -6 44 24.5 73.5c0.4 0.4 0.8 0.7 1.2 1.1 -2.8 0.9-5 2.5-6.4 4.7 -5.8 9.1 4.7 26.2 23.5 39.2 3.2 4.6 6.9 8.8 10.7 11 12 7 30.5 8.5 37 7.5s-6.5 6.5-5 11.5 6.5 12.5 15.5 9c9-3.5 49.5-6.5 53-9s29.5-21 29.5-21L154.8 129.5zM120.8 148.1c0 0-9.1-4-29-16.2 -19.9-12.1-24.4-20.2-28.4-30.6 -4-10.4 87.5 51.3 87.5 51.3L120.8 148.1zM225.5 149.2c0 0 26 18.6 29.5 21.1s44 5.5 53 9c9 3.5 14-4 15.5-9s-11.5-12.5-5-11.5 25-0.5 37-7.5c3.8-2.2 7.5-6.4 10.7-11 18.8-13.1 29.2-30.1 23.5-39.2 -1.4-2.2-3.6-3.7-6.4-4.7 0.4-0.4 0.8-0.7 1.2-1.1 30.5-29.5 30-60.5 24.5-73.5s-66 15-66 15 -60.6 63.1-85.9 92.8L225.5 149.2zM261 152.7c0 0 91.5-61.7 87.5-51.3s-8.5 18.5-28.4 30.6c-19.9 12.1-29 16.2-29 16.2L261 152.7zM179.3 112.8c7.5-2.7 15.9-4.2 24.8-4.2s17.4 1.5 24.8 4.2c4.9-4.3 7.9-9.9 7.9-16 0-13.6-14.7-24.6-32.7-24.6 -18.1 0-32.7 11-32.7 24.6C171.4 102.9 174.4 108.5 179.3 112.8z"/><path fill="#FFA000" d="M227.9 78.2c-0.6-18.2 11.1-35.8 25.5-46.2 5.2-3.7 0.2-12.4-5-8.6 -17.3 12.4-31.2 32.9-30.5 54.8C218.1 84.6 228.1 84.7 227.9 78.2L227.9 78.2z"/><path fill="#FFA000" d="M192.2 76.9c-1.6-9.6-0.9-18.2-5.5-27.2 -4.4-8.6-10.9-15.9-14.5-24.8 -2.4-5.9-12.1-3.3-9.6 2.7 3.5 8.8 9.1 16.3 13.9 24.3 5.3 8.9 4.4 17.8 6.1 27.7C183.6 85.9 193.3 83.2 192.2 76.9L192.2 76.9z"/><path fill="#FFA000" d="M205.1 112.8c23.6 0 43.4 12.2 48.1 28.6 0.1-0.8 0.1-1.6 0.1-2.3 0-20-22-36.2-49.2-36.2s-49.2 16.2-49.2 36.2c0 2.6 0.4 5.2 1.1 7.7C157.7 127.7 179 112.8 205.1 112.8zM204.9 304.2c-28.9 0-52.8-27.9-56.9-64.3 -0.4 3.6-0.6 7.3-0.6 11 0 41.6 25.7 75.3 57.5 75.3 31.8 0 57.5-33.7 57.5-75.3 0-3.7-0.2-7.4-0.6-11C257.7 276.3 233.8 304.2 204.9 304.2zM248.3 224.3c-10.6 4.4-24.4 7-39.4 7 -18.7 0-35.4-4.1-46.6-10.4 -0.5 1.3-0.9 2.7-1.2 4.1 -3.8 16.3 3.3 31.8 15.9 34.8 11 2.6 22.5-5.3 27.7-18.2 5.1 13.4 16.9 21.8 28.1 19.2 12.6-2.9 19.7-18.5 15.9-34.8C248.6 225.4 248.4 224.8 248.3 224.3z"/><path fill="#FFA000" d="M250.9 209.6c0.1 8-9.3 10.2-15.5 11.6 -4.7 1-9.1 2.9-13.8 3.7 -4.9 0.9-9.8 1.2-14.7 1.3 -9.3 0.2-19.7-0.9-28.1-5 -3.7-1.8-7.3-3.8-10.9-5.7 -4.3-2.3-4.6-6-6.8-9.9 -3.2-5.6-11.9-0.5-8.6 5 2.6 4.5 3.4 8.8 8 11.9 4.2 2.8 8.9 5 13.3 7.3 10.4 5.4 23.4 6.5 34.9 6.3 12.3-0.2 23.8-3.7 35.5-6.7 9.1-2.4 17-10.2 16.9-19.9C260.8 203.2 250.8 203.2 250.9 209.6L250.9 209.6z"/><path fill="#FFA000" d="M149.1 213c-2.4 8.4-4.8 16.5-8.3 24.6 -1.5 3.3-2.1 7.9-4.3 10.7 -2.4 3-4.1 5.4-5.2 9.2 -2.4 8-3.7 16.4-4.8 24.8 -0.5 4-0.7 8-0.4 12 0.2 3.1 3.1 8.3 1.6 11.1 -3.1 5.7 5.6 10.7 8.6 5 3.6-6.6-0.2-12.3-0.3-19.1 -0.2-9.2 1.8-18.6 4-27.5 0.4-1.8 1-3.6 1.5-5.4 0.6-2.1 2.9-3.4 3.9-5.3 2.1-3.8 3.1-8 4.8-12 3.7-8.3 6.2-16.7 8.6-25.4C160.5 209.4 150.9 206.8 149.1 213L149.1 213z"/><path fill="#FFA000" d="M134.2 252.7c0.1 5.1-1.9 9.6-3.8 14.3 -1.9 4.8-3.6 9.7-5.1 14.6 -0.9 3.1 0 7 2.9 8.7 3.8 2.2 7.1-0.9 8.8-4 3.2-5.6-5.4-10.6-8.6-5 0.3 0 0.7-0.1 1-0.1 1.6 0.4 3.2 0.9 4.9 1.3 0.5 1.9 0.8 2.1 1.1 0.6 0.5-1.8 1.2-3.6 1.8-5.3 0.9-2.7 1.9-5.5 2.9-8.2 2.2-5.5 4.2-10.9 4.1-17C144.1 246.3 134.1 246.3 134.2 252.7L134.2 252.7z"/><path fill="#FFA000" d="M136 253.4c-3.1 8.8-8.1 17.5-8.1 27 0 6.6 9.2 6.2 10 0 0.6-4.3 0-7.5 3-10.8 -2.8-0.7-5.6-1.5-8.4-2.2 0.8 3.8-2.2 8.6-4.6 11.3 -4.2 4.8 2.8 11.9 7.1 7.1 5-5.7 8.7-13.4 7.2-21 -0.7-3.6-5.9-4.9-8.4-2.2 -1.7 2-3.4 3.9-4.4 6.3 -1.6 3.6-1 7.8-1.5 11.6 3.3 0 6.7 0 10 0 0-8.3 5-16.6 7.7-24.4C147.7 250 138.1 247.4 136 253.4L136 253.4z"/><path fill="#FFA000" d="M122.5 293.1c-1.5 2.9-2.8 5.8-3.9 8.8 -0.5 1.4-0.8 2.9-0.9 4.4 0 0.6 0 1.2 0 1.8 -0.2 1.1-0.1 1.2 0.3 0.2 -4.4 4.7 2.6 11.8 7.1 7.1 2.2-2.3 2.6-5 2.6-8.1 0-3.1 2-6.4 3.4-9C134.2 292.4 125.5 287.4 122.5 293.1L122.5 293.1z"/><path fill="#FFA000" d="M111 319.6c4.4 1.2 10.5 3 14-1.1 1.8-2.1 2-5 0-7.1 -1.8-1.8-5.3-2.1-7.1 0 -0.4 0.4-0.3 0.4 0.2-0.1 1-0.6-0.4-0.2 0.7-0.3 -0.3 0-0.6 0-0.9 0 -1.4-0.1 1 0.2-0.5-0.1 -1.3-0.2-2.6-0.7-3.9-1C107.4 308.2 104.8 317.9 111 319.6L111 319.6z"/><path fill="#FFA000" d="M115.2 332.3c1.6-1.8 2.6-3.9 3.9-5.9 0.3-0.4 1.2-1.2 1.7-1.7 1-0.9 1.9-2 2.7-3.1 1.5-2.3 0.5-5.5-1.8-6.8 -2.4-1.4-5.4-0.5-6.8 1.8 -0.6 1-3 2.8-4 4.3 -1 1.4-1.8 3.4-2.7 4.4 -1.8 2-2 5.1 0 7.1C110 334.2 113.4 334.3 115.2 332.3L115.2 332.3z"/><path fill="#FFA000" d="M95.2 337c6.7 2.6 16.5 7.8 22.7 1.3 4.5-4.7-2.6-11.7-7.1-7.1 -1.7 1.8-10.7-3-12.9-3.9C91.8 325 89.3 334.7 95.2 337L95.2 337z"/><path fill="#FFA000" d="M114.7 346.6c-0.2-4.5-0.6-8.9 0-13.3 0.3-2.7-2.5-5-5-5 -3 0-4.7 2.3-5 5 -0.6 4.4-0.2 8.9 0 13.3C105 353 115 353 114.7 346.6L114.7 346.6z"/><path fill="#FFA000" d="M106.6 334.2c6.4 0 6.4-10 0-10S100.2 334.2 106.6 334.2L106.6 334.2z"/><path fill="#FFA000" d="M114.2 334.9c1.2 1.4 2.8 2.3 4.5 3 0.7 0.3 1.4 0.6 2.1 1 0.2 0.1 1.1 0.9 0.2 0.1 0.9 0.8-0.5-0.9 0.2 0.2 1.4 2.3 4.4 3.2 6.8 1.8 2.3-1.3 3.2-4.5 1.8-6.8 -1.2-1.9-2.9-3.3-5-4.3 -0.7-0.3-1.4-0.6-2.1-1 -0.3-0.2-0.7-0.4-1-0.5 -0.5-0.3-0.4-0.3 0.1 0.1 -0.2-0.2-0.4-0.3-0.5-0.5 -1.8-2-5.2-1.9-7.1 0C112.2 329.9 112.4 332.9 114.2 334.9L114.2 334.9z"/><path fill="#FFA000" d="M128.4 327.2c-0.8-2.6-0.4-3.9 0.4-6.6 1.8-6.2-7.8-8.8-9.6-2.7 -1.2 4-1.7 7.9-0.4 12 0.8 2.6 3.4 4.2 6.2 3.5C127.5 332.7 129.3 329.8 128.4 327.2L128.4 327.2z"/><path fill="#FFA000" d="M122.7 328c0.4 0.2 0.8 0.5 1.2 0.7 0.4 0.3 0.3 0.2-0.4-0.3 0.5 0.4 1 0.7 1.5 1.1 1.1 0.8 2.3 1.4 3.6 1.8 2.6 0.7 5.4-0.8 6.2-3.5 0.7-2.6-0.9-5.5-3.5-6.1 -0.2 0-0.4-0.1-0.5-0.2 0.8 0.3 0.9 0.4 0.5 0.2 -0.4-0.2-0.8-0.5-1.1-0.8 0.6 0.5 0.8 0.6 0.4 0.3 -0.5-0.4-1-0.7-1.5-1.1 -0.4-0.3-0.7-0.5-1.2-0.7 -2.4-1.3-5.4-0.6-6.8 1.8C119.6 323.5 120.3 326.7 122.7 328L122.7 328z"/><path fill="#FFA000" d="M132.7 317.5c-0.4-2.3-0.5-5.3 0.2-7.7 2-6.2-7.7-8.8-9.6-2.7 -1.3 4.2-1 8.8-0.2 13 0.5 2.7 3.7 4.2 6.2 3.5C132 322.9 133.2 320.2 132.7 317.5L132.7 317.5z"/><path fill="#FFA000" d="M128.9 314.3c0.5 0 0.4 0-0.5-0.1 0.2 0 0.3 0.1 0.5 0.2 -1.5-0.5-0.2 0 0.2 0.2 1 0.6 2 1.1 3.1 1.5 2.5 1 5.5-1.1 6.2-3.5 0.4-1.3 0.2-2.7-0.5-3.9 -0.7-1.2-1.7-1.8-3-2.3 1.5 0.6 0.1 0-0.2-0.2 -0.4-0.2-0.8-0.5-1.2-0.7 -1.4-0.8-2.9-1.2-4.6-1.3 -2.7-0.1-5 2.4-5 5C123.9 312.2 126.1 314.2 128.9 314.3L128.9 314.3z"/><path fill="#FFA000" d="M251.1 212.1c0.1 7.5 1.2 14.3 4.7 20.9 2.1 4 4 7.6 5.2 11.9 1.2 4.4 2.2 8.9 3.5 13.2 2.9 9 7.8 17.5 9.7 26.8 0.9 4.4 2.9 9.1 3.2 13.6 0.2 3.9-1.4 7.8-1.4 11.7 -0.1 6.5 9.9 6.4 10 0 0-3.5 0.9-6.9 1.4-10.3 0.5-4.3-1.4-8.5-2.4-12.6 -1.1-4.6-1.7-9-3.5-13.4 -1.8-4.4-3.7-8.8-5.4-13.2 -3.1-8.4-4.4-17.4-7.9-25.7 -1.7-3.9-4.2-7.3-5.6-11.3 -1.3-3.8-1.4-7.8-1.5-11.7C261 205.6 251 205.6 251.1 212.1L251.1 212.1z"/><path fill="#FFA000" d="M278.6 318.1c2-1.6 3-3.9 4.2-6.1 1.3-2.4 0.6-5.4-1.8-6.8 -2.3-1.3-5.5-0.6-6.8 1.8 -0.5 0.8-0.9 1.7-1.3 2.5 -0.2 0.3-1.2 1.7-0.2 0.5 -0.3 0.4-0.7 0.7-1.1 1 -2.1 1.7-1.8 5.3 0 7.1 0.9 0.9 2.2 1.5 3.5 1.5C276.5 319.6 277.5 319 278.6 318.1L278.6 318.1z"/><path fill="#FFA000" d="M285.1 321.7c0.1-1.6-0.2 0.9 0.1-0.8 0.1-0.7 0.3-1.4 0.5-2.1 0.3-1.5 0.6-3 0.5-4.4 -0.1-2.7-2.2-5-5-5 -2.6 0-5.1 2.3-5 5 0 0-0.1 1.7 0.1 0.8 -0.1 0.7-0.3 1.4-0.4 2.1 -0.3 1.5-0.6 3-0.6 4.5 -0.1 2.7 2.3 5 5 5C282.9 326.7 285.1 324.4 285.1 321.7L285.1 321.7z"/><path fill="#FFA000" d="M288 328.6c0-4.2 0-8.4 0-12.5 0-6.4-10-6.4-10 0 0 4.2 0 8.4 0 12.5C278 335 288 335 288 328.6L288 328.6z"/><path fill="#FFA000" d="M282.5 305.6c2 3.5 4.8 5.8 7.7 8.5 2 1.8 5.1 2 7.1 0 1.9-1.9 2-5.2 0-7.1 -1.1-1-2.3-2-3.5-3.1 -0.6-0.5-1.1-1.1-1.6-1.7 0.7 0.9-0.2-0.3-0.2-0.4 -0.3-0.4-0.5-0.8-0.8-1.3 -1.3-2.4-4.5-3.2-6.8-1.8C281.9 300.1 281.1 303.2 282.5 305.6L282.5 305.6z"/><path fill="#FFA000" d="M278.6 318.5c4.9 5.4 11.2 4.2 17.7 4.3 6.5 0.1 6.4-9.9 0-10 -3.4-0.1-8.1 1.4-10.6-1.4C281.4 306.7 274.3 313.8 278.6 318.5L278.6 318.5z"/><path fill="#FFA000" d="M285.3 314c0.1 0 0.3 0 0.4 0.1 -0.3-0.1-0.6-0.2-0.9-0.4 0.4 0.3 0.2 0.1-0.6-0.5 0.6 0.5-0.8-1.1-0.3-0.4 0.2 0.3 0.5 1.1-0.2-0.5 0.3 0.8 0.5 1.6 0.7 2.4 0.7 2.6 3.6 4.2 6.2 3.5 2.7-0.7 4.1-3.5 3.5-6.1 -0.8-3.3-2.3-7.1-6.1-7.7 -1.4-0.2-2.6-0.2-3.9 0.5 -1.1 0.7-2 1.7-2.3 3C281.1 310.2 282.6 313.5 285.3 314L285.3 314z"/><path fill="#FFA000" d="M285.5 321.9c0.1 5.5 1.7 10.9 1.8 16.4 0.1 6.4 10.1 6.5 10 0 -0.1-5.5-1.7-10.9-1.8-16.4C295.3 315.4 285.3 315.4 285.5 321.9L285.5 321.9z"/><path fill="#FFA000" d="M291.3 324.8c1.4 3.5 3.5 6.3 5.9 9.3 1.7 2.1 5.3 1.8 7.1 0 2.1-2.1 1.7-5 0-7.1 -0.3-0.4-0.6-0.8-1-1.2 -0.4-0.5-0.4-0.5-0.1-0.2 -0.2-0.3-0.4-0.5-0.6-0.8 -0.4-0.5-0.7-1.1-1.1-1.7 -0.1-0.2-0.9-1.8-0.6-1 -1-2.5-3.3-4.3-6.1-3.5C292.4 319.3 290.3 322.3 291.3 324.8L291.3 324.8z"/><path fill="#FFA000" d="M293.3 333.6c0.1 2.2 0.7 4 1.5 5.9 0.3 0.6 0.6 1.3 0.9 1.9 0.2 0.6 0.3 0.6 0.1 0.2 0.2 0.5 0.3 0.9 0.5 1.4 0.7 2.6 3.5 4.2 6.2 3.5 2.6-0.7 4.2-3.5 3.5-6.1 -0.4-1.6-1.1-3-1.8-4.5 -0.5-0.9-0.8-1.7-0.8-2.3 -0.1-2.7-2.2-5-5-5C295.7 328.6 293.2 330.9 293.3 333.6L293.3 333.6z"/><path fill="#FFA000" d="M300.6 341c2.3 0 4.6 0.4 6.9 0.4 2.7 0 5-2.3 5-5 0-2.7-2.3-5-5-5 -2.3 0-4.6-0.4-6.9-0.4 -2.7 0-5 2.3-5 5C295.6 338.8 297.8 341 300.6 341L300.6 341z"/><path fill="#FFA000" d="M47 273.8c6.5-0.8 13.3-0.8 19.4-3.6 5.3-2.4 9.9-6.7 14.6-10.2 5.2-3.8 8.2-9.4 13.1-13.5 5-4.2 10.3-8 14.8-12.8 4.2-4.4 6-10.4 10.6-14.3 4.8-4.1 10.1-7.8 14.7-12.1 4.9-4.5 9-8.6 14.8-11.9 3-1.6 5.7-3.5 8.3-5.7 3-2.5 6-4.5 9.2-6.7 7.9-5.5 0.4-18.5-7.6-13 -2.3 1.6-4.7 3-7 4.6 -2.7 1.9-4.9 4.4-7.7 6.2 -5.7 3.7-11.2 6.6-16.2 11.4 -4.3 4.2-8.6 8-13.3 11.7 -4.9 3.8-9.7 7.6-12.5 13.3 -5.5 11.1-18.2 16.2-25.5 25.9 -3.6 4.8-8.5 7.5-13.1 11.3 -4.8 4-10.8 3.8-16.7 4.5 -4.1 0.5-7.5 3-7.5 7.5C39.5 270 42.9 274.3 47 273.8L47 273.8z"/><path fill="#FFA000" d="M46.3 282c2.4-0.9 4.4-2 6.5-3.4 1.7-1.1 3.4-2.4 5.4-3.1 6.1-2 3.5-11.6-2.7-9.6 -2.4 0.8-4.5 1.9-6.5 3.2 -1.7 1.1-3.5 2.5-5.4 3.2 -2.6 0.9-4.3 3.4-3.5 6.2C40.8 281 43.7 282.9 46.3 282L46.3 282z"/><path fill="#FFA000" d="M64.9 278.3c0.6-3.9 0.4-7.7 0.4-11.6 0-6.4-10-6.5-10 0 0 2.9 0.5 6.1 0 9 -0.4 2.7 0.7 5.4 3.5 6.2C61.2 282.5 64.5 281 64.9 278.3L64.9 278.3z"/><path fill="#FFA000" d="M72.2 266.9c-0.5-0.2-0.6-0.2 0 0 -0.4-0.2-0.8-0.4-1.1-0.7 -0.6-0.4-1.2-0.9-1.8-1.4 -1.5-1.1-2.9-1.9-4.7-2.6 -2.5-1-5.5 1.1-6.1 3.5 -0.8 2.8 1 5.2 3.5 6.2 -0.5-0.2-0.5-0.2 0 0.1 0.4 0.2 0.8 0.5 1.1 0.7 0.6 0.4 1.2 0.9 1.8 1.4 1.4 1.1 2.9 1.9 4.7 2.5 2.6 0.8 5.5-1 6.2-3.5C76.4 270.3 74.7 267.7 72.2 266.9L72.2 266.9z"/><path fill="#FFA000" d="M81.5 265.3c0.5 0.1 0.4 0.1-0.2-0.1 0.6 0.2-0.9-0.5-0.9-0.5 -0.7-0.4-1.4-1-2-1.5 -1.7-1.4-3.3-2.9-5.2-4.1 -5.5-3.3-10.6 5.3-5 8.6 4.3 2.6 7.6 7.2 13.4 7.6 2.7 0.2 5-2.4 5-5C86.5 267.5 84.3 265.5 81.5 265.3L81.5 265.3z"/><path fill="#FFA000" d="M86.8 267c0.9-4.9 0.8-9.9 1.2-14.9 0.2-2.7-2.4-5-5-5 -2.9 0-4.8 2.3-5 5 -0.3 4.1-0.1 8.2-0.8 12.2 -0.5 2.7 0.7 5.4 3.5 6.2C83.1 271.1 86.3 269.7 86.8 267L86.8 267z"/><path fill="#FFA000" d="M242.8 181.7c3 11.5 16.2 19.3 26.2 24.1 6.6 3.2 12.2 8.5 17.9 13 6.1 4.9 10.1 10 14.4 16.4 4 5.9 8.9 9.2 14.9 12.8 2.8 1.6 3.1 5.9 3.8 8.7 0.7 3.4 1.7 6.7 4.2 9.4 3.9 4.3 9.4 6.2 14.8 8 2.7 0.9 5.3 1.7 7.8 2.9 3.1 1.6 5.6 3.8 8.4 5.9 3.3 2.4 8.3 0.6 10.3-2.7 2.2-3.8 0.6-7.9-2.7-10.3 -5.1-3.7-9.4-6.6-15.3-8.8 -3.2-1.2-9.9-1.9-12.1-4.9 -1.3-1.8-1.4-5.8-2-8 -0.9-3.2-2.5-6.7-4.8-9.1 -4.3-4.6-10.5-6.1-14.2-11.3 -3.8-5.3-6.9-10.6-11.7-15.1 -5.3-5.1-11.4-9.6-17.3-14 -5.5-4.2-11.7-6.7-17.4-10.5 -3.6-2.4-9.4-5.8-10.6-10.3C254.8 168.4 240.3 172.3 242.8 181.7L242.8 181.7z"/><path fill="#FFA000" d="M333.3 257.9c3.8-0.3 8.5 0.5 11.8 1.9 2.5 1.1 5.4 0.8 6.8-1.8 1.3-2.2 0.7-5.7-1.8-6.8 -5.1-2.3-11.3-3.8-16.9-3.3C327 248.4 326.9 258.4 333.3 257.9L333.3 257.9z"/><path fill="#FFA000" d="M334.9 282.8c4-1.5 7.7-4 9.7-8 1.2-2.4 0.7-5.4-1.8-6.8 -2.2-1.3-5.6-0.7-6.8 1.8 -0.2 0.5-0.5 0.9-0.8 1.4 0.4-0.5 0.4-0.5 0-0.1 -0.3 0.3-0.6 0.6-0.9 0.9 -0.4 0.4-0.4 0.4 0 0 -0.3 0.2-0.7 0.5-1 0.7 -0.2 0.1-0.5 0.3-0.7 0.4 -1.2 0.6 0.9-0.3-0.3 0.1 -2.5 1-4.3 3.3-3.5 6.2C329.4 281.8 332.3 283.8 334.9 282.8L334.9 282.8z"/><path fill="#FFA000" d="M345.2 285.4c1.9-0.7 3.5-1.7 4.8-3.2 0.8-0.9 1.5-2 2.5-2.8 2.1-1.7 1.8-5.3 0-7.1 -2.1-2.1-5-1.7-7.1 0 -0.8 0.7-1.5 1.5-2.1 2.3 -0.3 0.4-0.7 0.8-1.1 1.2 -0.7 0.7 1-0.7 0.2-0.1 -0.3 0.2-1.2 0.5 0.2 0 -2.6 0.9-4.3 3.4-3.5 6.2C339.7 284.4 342.6 286.4 345.2 285.4L345.2 285.4z"/><path fill="#FFA000" d="M334 257.5c2.1 6.2 8.4 7.5 13.8 9.6 2.5 1 5.5-1.1 6.2-3.5 0.8-2.8-1-5.2-3.5-6.1 -1.6-0.6-3.2-1.1-4.7-1.6 -1.5-0.6 0.8 0.4-0.7-0.3 -0.4-0.2-0.9-0.5-1.3-0.7 -1.2-0.7 0.6 0.6-0.4-0.4 0.7 0.7-0.1-0.6 0.2 0.4 -0.9-2.6-3.4-4.2-6.1-3.5C335 252 333.1 254.9 334 257.5L334 257.5z"/><path fill="#FFA000" d="M358.1 275.1c3.7-0.7 7.4-1 11.2-1 6.4 0 6.5-10 0-10 -4.7 0-9.3 0.5-13.9 1.4 -2.7 0.5-4.2 3.7-3.5 6.2C352.7 274.4 355.4 275.6 358.1 275.1L358.1 275.1z"/><path fill="#FFA000" d="M353.6 268.6c1.7 0 3.2 0.1 4.9-0.1 2.3-0.3 4.5-1.9 5.5-4 1.2-2.5 0.7-5.4-1.8-6.8 -2.2-1.3-5.7-0.7-6.8 1.8 -0.1 0.2-0.2 0.4-0.3 0.5 0.1-0.2 0.3-0.4 0.4-0.6 0.7-0.5 0.8-0.6 0.4-0.3 0.8-0.3 1-0.4 0.5-0.3 -1 0.3 1.3-0.1 0.3-0.1 -1 0-2-0.1-3-0.1 -2.7 0-5 2.3-5 5C348.6 266.4 350.8 268.6 353.6 268.6L353.6 268.6z"/><path fill="#FFA000" d="M246.7 116.3c6.1-6.3 12.2-12.5 17.1-19.7 4.8-7.2 4.1-14.8 5.8-22.9 2.1-9.9 6.4-19.2 10.3-28.5 3.6-8.4 8.5-15.5 15.6-21.2 5-4-2.1-11.1-7.1-7.1 -13.9 11.1-20.4 28.8-26 45.2 -1.5 4.3-2.8 8.9-3.3 13.5 -0.5 4-0.5 8-1.7 11.9 -1.2 4-5 7.9-7.7 11 -3.2 3.8-6.8 7.2-10.2 10.8C235.1 113.9 242.2 121 246.7 116.3L246.7 116.3z"/><path fill="#FFA000" d="M261.7 37c2.3 1.8 3.1 6.8 3.1 9.6 0.1 6.4 10.1 6.5 10 0 -0.1-6.8-2.5-14-8.1-18.2 -2.2-1.6-5.6-0.3-6.8 1.8C258.4 32.7 259.5 35.3 261.7 37L261.7 37z"/><path fill="#FFA000" d="M266.2 24.5c-0.2 3.7 0.9 7.2 2.6 10.4 1.3 2.4 4.6 3.1 6.8 1.8 2.4-1.4 3.1-4.4 1.8-6.8 -1-1.9-1.4-3.1-1.2-5.4 0.1-2.7-2.4-5-5-5C268.4 19.5 266.3 21.8 266.2 24.5L266.2 24.5z"/><path fill="#FFA000" d="M275.1 23c-0.8-0.4-1-0.5-0.6-0.3 -0.2-0.2-0.5-0.3-0.7-0.5 -0.5-0.7-0.6-0.9-0.4-0.4 0.2 0.3 0.5 1.2-0.1-0.2 0.1 0.3 0.2 0.6 0.3 0.8 0.3 1.1 0.4 2.2 0.7 3.2 0.5 2.7 3.7 4.2 6.2 3.5 2.8-0.8 4-3.5 3.5-6.1 -0.8-3.9-1.7-8.5-6.2-9.7 -2.6-0.7-5.4 0.9-6.1 3.5C270.9 19.4 272.4 22.2 275.1 23L275.1 23z"/><path fill="#FFA000" d="M284.8 2.6c-4.3 5.1-7.1 12.5-6.3 19.2 0.3 2.7 2 5 5 5 2.5 0 5.3-2.3 5-5 -0.5-4 0.7-8.9 3.4-12.1C296 4.8 289-2.3 284.8 2.6L284.8 2.6z"/><path fill="#FFA000" d="M295.3 18.1c0-0.3 0-0.6 0.1-0.8 -0.1 0.4-0.1 0.9-0.2 1.3 0.1-0.8 0.4-1.5 0.7-2.2 -0.2 0.4-0.3 0.8-0.5 1.2 0.1-0.3 0.3-0.7 0.4-1 0.6-1.3 0.9-2.4 0.5-3.9 -0.3-1.2-1.2-2.3-2.3-3 -1.2-0.7-2.6-0.9-3.9-0.5 -1.1 0.3-2.5 1.2-3 2.3 -0.9 2.2-1.8 4.1-1.8 6.6 -0.1 2.7 2.3 5 5 5C293.1 23.1 295.2 20.9 295.3 18.1L295.3 18.1z"/><path fill="#FFA000" d="M291.3 23c2.3 0.4 4.4 0.4 6.7 0.4 2.7 0 5-2.3 5-5 0-2.7-2.3-5-5-5 -0.8 0-1.5 0-2.3 0 -0.4 0-0.8 0-1.2 0 -0.3 0-0.5 0-0.8-0.1 0.7 0.1 0.8 0.1 0.2 0 -2.7-0.5-5.4 0.7-6.1 3.5C287.1 19.3 288.6 22.4 291.3 23L291.3 23z"/><path fill="#FFA000" d="M171.4 112c-1.7-1.6-1.8-4.5-2.4-6.7 -0.9-3.1-2.8-6.2-4.4-9 -3.9-6.8-8.9-12.6-11.4-20.2 -1-3-1.8-5.9-3.1-8.8 -1.5-3.4-3.4-6.6-4.3-10.2 -1.9-7.2-0.9-15.5 0.6-22.6 1.3-6.3-8.4-9-9.6-2.7 -1.5 7.5-2.3 15.4-1.4 23 1 8.2 5.8 14.5 7.8 22.3 2.2 8.5 7.2 15.5 11.9 22.8 2.1 3.2 4.1 6.7 4.9 10.5 0.8 3.4 1.7 6.4 4.4 8.8C169.1 123.4 176.1 116.3 171.4 112L171.4 112z"/><path fill="#FFA000" d="M117.4 31.1c4 4.2 9.4 6.1 14.3 8.9 5.6 3.1 10.7-5.5 5-8.6 -4.1-2.3-9-3.8-12.3-7.3C120 19.4 112.9 26.5 117.4 31.1L117.4 31.1z"/><path fill="#FFA000" d="M128.3 18.7c0.5 3.9-0.3 7.7-0.2 11.6 0.2 6.4 10.2 6.5 10 0 -0.1-3.9 0.7-7.7 0.2-11.6 -0.3-2.7-2-5-5-5C130.8 13.7 127.9 16 128.3 18.7L128.3 18.7z"/><path fill="#FFA000" d="M115.4 12c1.5 1.2 1.8 3.6 2.3 5.4 1 3.3 2.6 6.5 4.4 9.5 3.3 5.5 12 0.5 8.6-5 -1.7-2.7-3-5.5-3.9-8.6 -0.9-3-2-6.3-4.5-8.3 -2.1-1.7-5-2.1-7.1 0C113.7 6.7 113.3 10.3 115.4 12L115.4 12z"/><path fill="#FFA000" d="M105 18c2 1.5 3.9 2.7 6.2 3.6 2 0.8 3.9 1.6 5.6 3 2.2 1.7 5.6 0.3 6.8-1.8 1.5-2.6 0.4-5.2-1.8-6.8 -3-2.3-6.9-2.8-9.8-5 -2.1-1.7-5-2.1-7.1 0C103.3 12.7 102.8 16.3 105 18L105 18z"/><path fill="#FFA000" d="M128.4 20.4c6.4 0 6.4-10 0-10S122 20.4 128.4 20.4L128.4 20.4z"/><path fill="#FFA000" d="M135.4 44.6c6.4 0 6.4-10 0-10S128.9 44.6 135.4 44.6L135.4 44.6z"/><path fill="#FFA000" d="M129.4 45.6c6.4 0 6.4-10 0-10S122.9 45.6 129.4 45.6L129.4 45.6z"/><path fill="#FFA000" d="M135 49.2c6.4 0 6.4-10 0-10S128.6 49.2 135 49.2L135 49.2z"/></svg>
