<?xml version="1.0" encoding="UTF-8"?>
<svg viewBox="0 0 124 109" xmlns="http://www.w3.org/2000/svg">
<path d="m96.24 54.07s-3.96 2.41-6.67 2.82c0 0-1.66-0.71-2.63 0.12 0 0-4.8 1.44-5.24 0.72 0 0-2.15-0.68-3.98-0.04 0 0-2.35-2.26-3.33-1.44 0 0-2.46-1.21-3.0-0.88l-1.45-0.8c-0.03-0.03-0.07-0.06-0.1-0.08l1.21-0.72s6.78 0.1 8.29-2.27c0 0 2.62-4.58 3.33-5.16 0 0 1.35-2.81 0.84-3.92 0 0 1.18-6.87 2.22-6.75 0 0 3.12-5.38 2.29-5.47 0 0 6.23-9.04 7.14-9.95-0.91 0.76-8.54 7.15-8.72 8.92 0 0-3.12 1.37-3.82 7.85 0 0-0.67 4.17-0.89 4.36 0 0-2.06 1.48-2.62 6.71 0 0-6.34 3.77-9.04 3.27l-0.02 0.02c-0.17-0.06-0.35-0.14-0.51-0.2 0.49-1.4 0.79-2.03 0.79-2.03 2.06-0.27 4.97-7.22 4.97-7.22 0.74-3.65-0.29-6.98-0.29-6.98 1.13-3.4-2.21-12.95-2.21-12.95-7.97-16.36-9.46-11.51-9.46-11.51 2.44 0.4 4.79 4.91 6.18 8.16 0.29 1.09 0.73 2 1.26 3.26 0.02 0.04 0.03 0.06 0.03 0.06 0.52 2.88 2.06 12.3 2.06 12.3-1.26 7.67 2.02 6.17-0.14 7.49-2.17 1.31-2.5 5.21-3.98 5.62-0.81 0.23-1.23 1.09-1.45 1.83-0.28-0.51-0.55-1.01-0.81-1.46 1.11-0.79 2.66-2.0 2.64-2.43-0.05-0.67 1.1-4.25 0.04-4.4-1.08-0.15-1.16 0.4-1.16 0.4s0.01 1.94-0.1 2.77c-0.09 0.66-1.19 1.89-2.04 2.6-0.47-0.78-0.79-1.27-0.79-1.27-2.02-0.56-3.63 0.2-3.63 0.2-0.32 0.56-0.6 1.08-0.89 1.58-0.63-0.76-1.78-2.7-1.69-3.5 0.1-0.84 0.58-2.71 0.58-2.71s0.06-0.56-1.02-0.69c-1.08-0.12-0.82 3.62-1.04 4.28-0.17 0.54 1.85 2.89 2.58 3.71-0.36 0.69-0.69 1.33-0.96 1.93-0.36-0.72-1.01-1.73-1.98-1.76-1.54-0.04-2.77-3.77-5.17-4.54-2.42-0.78 1.13-0.08-1.86-7.25 0 0-0.7-9.51-0.85-12.45 0 0 0.04-0.43 0.12-1.14 0.25-1.21 0.57-2.84 0.67-3.97 0.69-3.25 1.88-6.97 3.82-7.8 0 0-2.58-4.37-6.54 13.39 0 0-1.03 10.06 0.86 13.12 0 0-0.23 3.46 1.32 6.86 0 0 4.45 6.08 6.52 5.87 0 0 0.2 0.25 0.57 0.8l-0.43-0.11c-2.23 1.6-9.57 0.9-9.57 0.9-2.73-4.5-5.23-4.96-5.23-4.96-0.29-0.07-2.66-3.56-2.66-3.56-3.4-5.58-6.79-5.49-6.79-5.49-0.93-1.51-10.54-4.08-11.69-4.38 1.2 0.43 10.7 5.97 10.7 5.97-0.72 0.44 4.39 3.98 4.39 3.98 0.9-0.55 4.87 5.17 4.87 5.17 0.01 1.23 2.44 3.21 2.44 3.21 0.87 0.21 5.18 3.25 5.18 3.25 2.4 1.51 8.48-1.45 8.48-1.45l1.26 0.12c-0.01 0.01-0.01 0.01 0 0.03-0.43 0.19-0.82 0.48-1.02 0.66l-1.02 0.7c-0.57-0.27-2.9 1.19-2.9 1.19-1.05-0.73-3.17 1.76-3.17 1.76-1.9-0.43-3.95 0.47-3.95 0.47-0.36 0.77-5.28-0.16-5.28-0.16-1.05-0.74-2.63 0.14-2.63 0.14-2.74-0.13-6.93-2.11-6.93-2.11l-1.7 0.12c1.29 3.18 8.07 3.13 8.07 3.13 0.2 1.03 2.1 0.99 2.1 0.99 0.27-0.58 7.34-0.26 7.34-0.26 1.04 0.26 4.32-0.76 4.32-0.76 1.71 0.34 2.71-1.28 2.71-1.28 1.04 0.27 2.33-0.98 2.33-0.98l1.28-0.46c0.2 0.91 0.85 0.87 0.85 0.87l0.26-0.02c-0.32 0.27-0.65 0.57-0.95 0.91l-1.08 0.39c-1.06 1.26-1.59 1.79-1.59 1.79-2.02-0.48-7.24 4.96-7.24 4.96-2.0 3.15-2.23 6.61-2.23 6.61-2.27 2.77-2.58 12.88-2.58 12.88 1.58 18.13 4.71 14.14 4.71 14.14-3.35-1.96-2.85-13.4-2.85-13.4 0.55-2.87 2.49-12.22 2.49-12.22 3.92-6.71 0.33-6.48 2.81-6.94 2.33-0.41 3.98-3.52 5.42-3.79-0.41 2.15-0.23 4.91 0.97 8.43 0 0 1.25 9.45 7.43 10.79 0 0 5.54 1.72 8.49-11.72 0 0 1.66-3.64 1.27-7.34 1.52-0.07 3.09 3.51 5.55 4.06 2.46 0.56-1.12 0.18 2.5 7.04 0 0 1.56 9.43 1.98 12.33 0 0 0.01 11.45-3.42 13.27 0 0 2.96 4.11 5.29-13.93 0 0 0.12-10.12-2.04-12.98 0 0-0.09-3.48-1.95-6.7 0 0-4.99-5.66-7.03-5.25 0 0-0.53-0.55-1.53-1.85l-1.18-0.48-0.03 0.11c-0.62-0.7-1.42-1.32-2.44-1.84l0.68-0.05 1.73 0.43s1.43 1.11 2.42 0.74c0 0 1.17 1.51 2.83 0.99 0 0 3.37 0.67 4.38 0.3 0 0 7.0-1.05 7.33-0.51 0 0 1.88-0.16 1.98-1.22 0 0 6.75-0.65 7.71-3.94l-1.7 0.04zm-11.64-21.77c0.62-1.23 1.52-2.04 2-1.78 0.48 0.23 0.36 1.43-0.27 2.66-0.62 1.23-1.51 2.03-2.0 1.79-0.48-0.24-0.36-1.44 0.26-2.67m-4.24 12.39c0.46-1.3 1.25-2.22 1.75-2.04 0.51 0.17 0.54 1.39 0.09 2.68-0.46 1.3-1.24 2.21-1.75 2.02-0.51-0.17-0.54-1.38-0.09-2.67m-7.19-6.48c-0.17-1.37 0.08-2.52 0.56-2.58 0.48-0.07 1.01 1 1.19 2.37 0.17 1.38-0.07 2.53-0.56 2.6-0.48 0.04-1.01-1.01-1.19-2.38m-1.19 5.88s0.68 0.2 0.81 0.96c0 0-1.07 2.88-2.02 2.9l-0.51-1.02 1.72-2.85zm-21.89-0.92c-0.48 0.07-1.01-0.99-1.2-2.37-0.16-1.36 0.09-2.52 0.57-2.59 0.48-0.07 1.0 1.0 1.18 2.37 0.17 1.38-0.07 2.54-0.56 2.59m5.38 6.58c-0.93 0.21-2.65-2.35-2.65-2.35-0.04-0.78 0.56-1.12 0.56-1.12l2.33 2.37-0.24 1.1zm-19.41-7.25c-0.34 0.41-1.49 0.04-2.54-0.84-1.07-0.88-1.66-1.93-1.31-2.34 0.35-0.41 1.48-0.04 2.55 0.85 1.05 0.88 1.64 1.93 1.3 2.33m8.72 9.47c-0.36 0.39-1.48-0.07-2.48-1.01-1-0.95-1.52-2.04-1.14-2.44 0.36-0.38 1.48 0.07 2.48 1.02 0.99 0.95 1.51 2.04 1.13 2.43m-5.97 8.36c-0.56 0.05-1.04-0.25-1.08-0.68-0.04-0.41 0.39-0.81 0.95-0.86 0.56-0.04 1.05 0.27 1.09 0.69 0.04 0.42-0.4 0.8-0.96 0.85m8.65-0.21c-0.89 0.05-1.6-0.16-1.62-0.49-0.03-0.33 0.67-0.64 1.55-0.69s1.61 0.17 1.63 0.49c0.02 0.32-0.68 0.63-1.55 0.69m7.88-2.94s-1.03 1.16-1.67 0.91c0 0-0.99-0.73-0.7-1.28 0 0 1.67-0.9 2.06-0.78 0-0.01 0.44 0.85 0.3 1.15m-10.9 24.98l-1.04 0.44c-0.71-0.64 0.4-3.52 0.4-3.52 0.6-0.48 1.25-0.19 1.25-0.19l-0.6 3.27zm3.37-11.55c-0.38 1.32-1.07 2.29-1.53 2.16-0.47-0.14-0.54-1.32-0.15-2.65 0.38-1.32 1.06-2.29 1.53-2.15 0.46 0.13 0.54 1.31 0.15 2.64m5.17-7.09l-1.31 1.8s-0.41-1.7-0.89-1.83l2.12-1.21 0.08 1.24zm30.94 15.91s0.99 2.92 0.26 3.52l-1.03-0.47-0.47-3.3c0.01 0.01 0.65-0.25 1.24 0.26m-3.43-11.46c0.47-0.12 1.11 0.88 1.44 2.23s0.2 2.52-0.27 2.63c-0.48 0.12-1.11-0.87-1.45-2.21-0.32-1.36-0.2-2.53 0.28-2.65m-5.2-5.71l1.86 1.33c-0.48 0.04-1.22 1.41-1.22 1.41l-0.95-1.7 0.31-1.05zm-4.42-0.12s2.5 3.05 0.41 6.95c0 0-6.26 7.04-14.49 0.27 0 0-1.56-1.95-0.1-6.67 0 0 6.75 6.28 14.19-0.54m2.52-4.19c-0.56 0.36-1.72-0.7-1.72-0.7-0.17-0.29 0.1-1.26 0.1-1.26 0.35-0.2 2.07 0 2.07 0 0.35 0.52-0.46 1.47-0.46 1.47m6.33 1.22c-0.88 0.06-1.61-0.16-1.62-0.48-0.03-0.33 0.67-0.64 1.55-0.69s1.6 0.17 1.64 0c0.01 0.32-0.68 0.63-1.56 0.68m8.64-0.6c-0.56 0.03-1.04-0.27-1.07-0.67-0.02-0.39 0.41-0.75 0.98-0.79 0.56-0.03 1.03 0.27 1.06 0.66 0.03 0.4-0.41 0.76-0.97 0.8" fill="#8a3d0c"/>
</svg>

